<?xml version="1.0" encoding="UTF-8" standalone="no"?>
<!-- Created with Inkscape (http://www.inkscape.org/) -->

<svg
   xmlns:dc="http://purl.org/dc/elements/1.1/"
   xmlns:cc="http://creativecommons.org/ns#"
   xmlns:rdf="http://www.w3.org/1999/02/22-rdf-syntax-ns#"
   xmlns:svg="http://www.w3.org/2000/svg"
   xmlns="http://www.w3.org/2000/svg"
   xmlns:sodipodi="http://sodipodi.sourceforge.net/DTD/sodipodi-0.dtd"
   xmlns:inkscape="http://www.inkscape.org/namespaces/inkscape"
   width="160"
   height="500"
   id="svg2"
   version="1.1"
   inkscape:version="0.48.4 r9939"
   sodipodi:docname="drawing_1.svg">
  <defs
     id="defs4" />
  <sodipodi:namedview
     id="base"
     pagecolor="#000000"
     bordercolor="#666666"
     borderopacity="1.0"
     inkscape:pageopacity="0"
     inkscape:pageshadow="2"
     inkscape:zoom="0.49497475"
     inkscape:cx="285.50812"
     inkscape:cy="128.34919"
     inkscape:document-units="px"
     inkscape:current-layer="layer1"
     showgrid="false"
     inkscape:window-width="1366"
     inkscape:window-height="706"
     inkscape:window-x="-8"
     inkscape:window-y="-8"
     inkscape:window-maximized="1" />
  <metadata
     id="metadata7">
    <rdf:RDF>
      <cc:Work
         rdf:about="">
        <dc:format>image/svg+xml</dc:format>
        <dc:type
           rdf:resource="http://purl.org/dc/dcmitype/StillImage" />
        <dc:title></dc:title>
      </cc:Work>
    </rdf:RDF>
  </metadata>
  <g
     inkscape:label="Layer 1"
     inkscape:groupmode="layer"
     id="layer1"
     transform="translate(0,-552.36218)">
    <g
       id="g3844"
       transform="translate(-22.223356,0)">
      <path
         inkscape:connector-curvature="0"
         id="path3778"
         d="m 37.930304,577.83771 c 0,12.62171 0,25.24341 0,37.86511 0,2.25388 0,4.50775 0,6.76162 0,0.45078 0,0.90156 0,1.35233 0,0.45078 -0.272668,0.94915 0,1.35233 0.385599,0.57018 1.443442,0.78213 1.829041,1.35232 0.272668,0.40319 0,0.90155 0,1.35233 0,0.45077 0,0.90155 0,1.35232 0,2.25388 0,4.50776 0,6.76163 0,0.45077 0,0.90155 0,1.35233 0,0.45077 -0.272649,0.94913 0,1.35232 0.385599,0.57019 1.443444,0.78214 1.829043,1.35232 0.574795,0.84998 -0.574795,4.55934 0,5.40931 0.385599,0.57018 1.443461,0.78213 1.82906,1.35233 0.27265,0.40318 0,0.90154 0,1.35232 0,0.90156 0,1.8031 0,2.70466 0,2.70464 0,5.4093 0,8.11394 0,7.2124 0,14.4248 0,21.63721 0,9.0155 0,18.031 0,27.0465 0,3.15542 0,6.31086 0,9.46628 0,1.35232 0.443595,2.74504 0,4.05698 -0.330645,0.97787 -1.498415,1.72678 -1.82906,2.70465 -0.295736,0.87463 0,1.8031 0,2.70465 0,2.25388 0,4.50775 0,6.76163 0,0.90155 0.295754,1.83002 0,2.70465 -0.330646,0.97787 -1.397923,1.7484 -1.829043,2.70465 -0.192799,0.42764 0,0.90155 0,1.35232 0,0.90156 0,1.8031 0,2.70466 0,2.70464 0,5.4093 0,8.11394 0,11.26938 0,22.53876 0,33.80814 0,3.6062 0,7.21241 0,10.81861 0,0.88862 0.343991,3.29399 0,4.05698 -0.431101,0.95623 -1.498397,1.72677 -1.829041,2.70464 -0.347739,1.0284 0,5.6292 0,6.76162 0,0.90156 0.385599,1.84937 0,2.70466 -0.272668,0.60477 -1.443462,0.78213 -1.829043,1.35232 -0.606083,0.89622 0.510987,4.27589 0,5.4093 -0.431119,0.95625 -1.498415,1.72678 -1.82906,2.70466 -0.408232,1.20732 0,5.19627 0,6.76162 0,5.86008 0,11.72015 0,17.58023 0,15.77712 0,31.55426 0,47.33139 0,18.031 0,36.062 0,54.09301 0,5.86008 0,11.72016 0,17.58024 0,0.72242 -0.261731,6.37458 0,6.76162 0.385599,0.57019 1.443461,0.78213 1.82906,1.35232 0.278317,0.41156 0,3.44795 0,4.05698 0,2.70465 0,5.4093 0,8.11395 0,7.2124 0,14.4248 0,21.63716 0,0.328 -0.05884,4.0135 0,4.057 0.431101,0.3188 1.397924,-0.3187 1.829043,0 0.08293,0.061 0,6.124 0,6.7617 0,2.2538 0,4.5077 0,6.7616 0,0.4508 -0.431119,1.0336 0,1.3523 2.438729,1.8031 1.829041,-2.2539 1.829041,1.3523 0,0.8975 0,1.8072 0,2.7047"
         style="fill:none;stroke:#ff0000;stroke-width:2;stroke-linecap:butt;stroke-linejoin:miter;stroke-miterlimit:4;stroke-opacity:1;stroke-dasharray:none" />
      <path
         inkscape:connector-curvature="0"
         id="path3780"
         d="m 49.371527,590.58846 c 0,-0.0797 0,-0.15942 0,-0.23907 0,-0.0797 0.07623,-0.1827 0,-0.23906 -0.07623,-0.0564 -0.247102,0.0564 -0.323331,0 -0.152457,-0.11272 0.152458,-0.3654 0,-0.47812 -0.07623,-0.0564 -0.247101,0.0564 -0.32333,0 -0.07623,-0.0564 0.07623,-0.18269 0,-0.23906 -0.07623,-0.0564 -0.247101,0.0564 -0.32333,0 -0.07623,-0.0564 0.04817,-0.16783 0,-0.23905 -0.06826,-0.10081 -0.255267,-0.13825 -0.323349,-0.23906 -0.04817,-0.0712 0.04817,-0.16785 0,-0.23907 -0.06808,-0.10081 -0.215595,-0.1594 -0.323329,-0.23906 -0.107735,-0.0797 -0.186988,-0.18872 -0.323331,-0.23906 -0.09633,-0.0356 -0.247102,0.0564 -0.32333,0 -0.152458,-0.11272 0.09633,-0.33556 0,-0.47811 -0.193995,-0.28688 -0.775996,-0.43031 -0.969991,-0.71719 -0.09633,-0.14255 0.152458,-0.36539 0,-0.47811 -0.07623,-0.0564 -0.247119,0.0564 -0.323348,0 -0.152458,-0.11273 0.152457,-0.3654 0,-0.47812 -0.07623,-0.0564 -0.227003,0.0356 -0.323331,0 -1.345631,-0.49753 0.345656,0.0165 -0.32333,-0.47812 -0.07623,-0.0564 -0.247101,0.0564 -0.32333,0 -0.152458,-0.11272 0.09633,-0.33558 0,-0.47812 -0.06826,-0.10081 -0.25525,-0.13825 -0.32333,-0.23906 -0.09633,-0.14255 0.152457,-0.3654 0,-0.47812 -0.07623,-0.0564 -0.247102,0.0564 -0.323331,0 -0.07623,-0.0564 0.07623,-0.18269 0,-0.23905 -0.07623,-0.0564 -0.247101,0.0564 -0.32333,0 -0.152458,-0.11273 0.09633,-0.33559 0,-0.47813 -0.194013,-0.28687 -0.776014,-0.4303 -0.970009,-0.71718 -0.09633,-0.14254 0.09633,-0.33556 0,-0.47811 -0.06808,-0.10081 -0.255249,-0.13825 -0.32333,-0.23906 -0.09633,-0.14255 0.152457,-0.36541 0,-0.47813 -0.07623,-0.0564 -0.247101,0.0564 -0.323331,0 -0.161692,-0.11955 0.161693,-0.59762 0,-0.71717 -0.07623,-0.0564 -0.2471,0.0564 -0.323329,0 -0.07623,-0.0564 0.04817,-0.16784 0,-0.23906 -0.06808,-0.10081 -0.25525,-0.13825 -0.323331,-0.23906 -0.09633,-0.14255 0.152458,-0.3654 0,-0.47813 -0.07623,-0.0564 -0.247119,0.0564 -0.323348,0 -0.152458,-0.11272 0.192799,-0.40689 0,-0.47811 -0.1928,-0.0712 -0.453861,0.0712 -0.646661,0 -0.09633,-0.0356 0,-0.1594 0,-0.23906 0,-0.63749 0.06464,-0.17531 -0.969991,-1.1953 -1.369549,1.01259 -1.293338,0.50547 -1.293338,1.1953 0,0.0797 0.04817,0.16778 0,0.23906 -0.06808,0.10081 -0.25516,0.13826 -0.323331,0.23906 -0.09633,0.14254 0.09633,0.33556 0,0.47811 -0.136343,0.2016 -0.510335,0.27653 -0.64666,0.47813 -0.09633,0.14255 0.152458,0.36542 0,0.47812 -0.07623,0.0564 -0.247138,-0.0564 -0.32333,0 -0.161693,0.11955 0.161691,0.59765 0,0.71717 -0.07623,0.0564 -0.247138,-0.0564 -0.323349,0 -0.07623,0.0564 0.07623,0.18272 0,0.23907 -0.07623,0.0564 -0.247119,-0.0564 -0.32333,0 -0.07623,0.0564 0.04817,0.16778 0,0.23906 -0.06808,0.1008 -0.255159,0.13826 -0.323331,0.23906 -0.04817,0.0712 0.07623,0.18271 0,0.23905 -0.07623,0.0564 -0.247119,-0.0564 -0.323329,0 -0.112805,0.0834 0.134169,0.66756 0,0.71718 -0.1928,0.0712 -0.453861,-0.0712 -0.646661,0 -0.09633,0.0356 0.04817,0.16779 0,0.23907 -0.06808,0.1008 -0.255177,0.13825 -0.323331,0.23906 -0.0641,0.0948 0.06609,0.66829 0,0.71717 -0.07623,0.0564 -0.247137,-0.0564 -0.323348,0 -0.07623,0.0564 0.07623,0.18271 0,0.23906 -0.07623,0.0564 -0.24712,-0.0564 -0.32333,0 -0.152458,0.11272 0.152458,0.36543 0,0.47812 -0.07623,0.0564 -0.247119,-0.0564 -0.32333,0 -0.152458,0.11273 0.152457,0.36543 0,0.47812 -0.07623,0.0564 -0.24712,-0.0564 -0.323331,0 -0.152457,0.11272 0.09633,0.33557 0,0.47812 -0.06826,0.1008 -0.255177,0.13826 -0.32333,0.23905 -0.04817,0.0712 0.07623,0.18271 0,0.23906 -0.07623,0.0564 -0.22693,-0.0356 -0.32333,0 -1.345649,0.49746 0.345656,-0.0165 -0.32333,0.47813 -0.07623,0.0564 -0.247137,-0.0564 -0.323348,0 -0.07623,0.0564 0.07623,0.18271 0,0.23906 -0.07623,0.0564 -0.24712,-0.0564 -0.323331,0 -0.161692,0.11955 0.161692,0.59765 0,0.71717 -0.07623,0.0564 -0.247119,-0.0564 -0.32333,0 -0.07623,0.0564 0.04817,0.16778 0,0.23906 -0.06808,0.1008 -0.255159,0.13826 -0.32333,0.23907 -0.09633,0.14253 0.152458,0.36542 0,0.47811 -0.07623,0.0564 -0.247119,-0.0564 -0.323331,0 -0.07623,0.0564 0.07623,0.18272 0,0.23906 -0.07623,0.0564 -0.247119,-0.0564 -0.32333,0 -0.161692,0.11955 0.161693,0.59765 0,0.71718 -0.07623,0.0564 -0.247137,-0.0564 -0.323331,0 -0.07623,0.0564 0.07623,0.18272 0,0.23907 -0.07623,0.0564 -0.247137,-0.0564 -0.323348,0 -0.152457,0.11272 0.152459,0.36542 0,0.47811 -0.431101,0.31874 -0.32333,-0.39843 -0.32333,0.23906"
         style="fill:none;stroke:#ff0000;stroke-width:2;stroke-linecap:butt;stroke-linejoin:miter;stroke-miterlimit:4;stroke-opacity:1;stroke-dasharray:none" />
    </g>
    <path
       style="fill:none;stroke:#ff0000;stroke-width:2;stroke-linecap:butt;stroke-linejoin:miter;stroke-miterlimit:4;stroke-opacity:1;stroke-dasharray:none"
       d="m 46.887359,591.56844 c 0.57226,-0.34513 1.287599,-1.49557 1.716799,-1.03539 0.4292,0.46017 -2.222626,1.44213 -1.716799,1.03539 0.647747,-0.52088 1.498233,-0.85964 2.145999,-1.38052 0.101215,-0.0814 -0.06392,-0.24224 0,-0.34515 0.09035,-0.14554 0.33872,-0.19961 0.429218,-0.34513 0.06392,-0.10281 -0.101217,-0.26378 0,-0.34512 0.888021,-0.7141 -0.03476,1.09123 0.858399,-0.34513 0.06392,-0.10281 -0.127833,-0.29369 0,-0.34514 0.255919,-0.10281 0.602462,0.10282 0.858381,0 0.127833,-0.0514 -0.101216,-0.26377 0,-0.34512 0.101216,-0.0814 0.328038,0.0814 0.4292,0 0.101216,-0.0814 -0.101216,-0.26379 0,-0.34513 0.08782,-0.0706 1.117433,0.0684 1.287617,0 0.181067,-0.0727 0.248242,-0.27238 0.4292,-0.34515 0.127833,-0.0514 0.30124,0.0514 0.4292,0 0.181066,-0.0727 0.248242,-0.27237 0.4292,-0.34513 0.127833,-0.0514 0.286139,0 0.4292,0 0.180523,0 2.447529,-0.0514 2.575217,0 0.181066,0.0727 0.248223,0.27238 0.429181,0.34513 0.127833,0.0514 0.328038,-0.0814 0.4292,0 0.101216,0.0814 -0.06392,0.24224 0,0.34515 0.09035,0.14554 0.338739,0.19959 0.429236,0.34513 0.06392,0.10281 -0.101216,0.26378 0,0.34512 0.101216,0.0814 0.32802,-0.0814 0.4292,0 0.101216,0.0814 -0.101216,0.26379 0,0.34514 0.101216,0.0814 0.32802,-0.0814 0.429181,0 0.08782,0.0705 -0.0851,0.89855 0,1.03538 0.09035,0.14553 0.338721,0.19962 0.4292,0.34515 0.06392,0.10282 0,0.23008 0,0.34513 0,0.11499 0,0.23007 0,0.34514 0,0.57521 0,1.15044 0,1.72565 0,0.28922 0.09108,1.57897 0,1.72565 -0.06392,0.10282 -0.32802,-0.0814 -0.4292,0 -0.101216,0.0814 0.06392,0.24224 0,0.34513 -0.09035,0.14553 -0.338721,0.19962 -0.429181,0.34515 -0.116426,0.18728 0.117511,1.28608 0,1.38052 -0.101216,0.0814 -0.328075,-0.0814 -0.4292,0 -0.101216,0.0814 0.101216,0.26377 0,0.34512 -0.888058,0.7141 0.03458,-1.09122 -0.858436,0.34513 -0.06392,0.10281 0.101216,0.2638 0,0.34515 -0.101216,0.0814 -0.328019,-0.0814 -0.429181,0 -0.101217,0.0814 0.06392,0.24223 0,0.34513 -0.257513,0.41415 -1.030087,0.62124 -1.2876,1.03539 -0.06392,0.10281 0.101216,0.26378 0,0.34512 -0.101216,0.0814 -0.328056,-0.0814 -0.4292,0 -0.888058,0.7141 1.357039,-0.0278 -0.429217,0.69028 -0.127833,0.0514 -0.328038,-0.0814 -0.4292,0 -0.202378,0.16274 0.202378,0.52757 0,0.69027 -0.101216,0.0814 -0.328038,-0.0814 -0.4292,0 -0.202378,0.16273 0.127833,0.48446 0,0.69025 -0.181066,0.29105 -0.677442,0.39923 -0.8584,0.69026 -0.127833,0.2058 0.127833,0.48448 0,0.69028 -0.09035,0.14553 -0.338721,0.19962 -0.4292,0.34512 -0.127833,0.20581 0.202379,0.52757 0,0.69027 -0.101216,0.0814 -0.328055,-0.0814 -0.4292,0 -0.202377,0.16274 0.202379,0.52755 0,0.69025 -0.202377,0.16274 -0.656075,-0.16274 -0.858417,0 -0.101216,0.0814 0.101216,0.2638 0,0.34515 -0.101216,0.0814 -0.32802,-0.0814 -0.4292,0 -0.101216,0.0814 0,0.23008 0,0.34513 -0.143042,0 -0.301222,-0.0514 -0.429181,0 -1.786238,0.71816 0.458822,-0.0238 -0.4292,0.69026 -0.101216,0.0814 -0.328038,-0.0814 -0.4292,0 -0.101216,0.0814 0.101217,0.26377 0,0.34513 -0.101216,0.0814 -0.429199,0.115 -0.429199,0 0,-0.115 0.286121,0 0.429199,0 0.8584,0 1.716781,0 2.575198,0 3.290539,0 6.581076,0 9.871632,0"
       id="path3782"
       inkscape:connector-curvature="0" />
    <path
       style="fill:none;stroke:#ff0000;stroke-width:2;stroke-linecap:butt;stroke-linejoin:miter;stroke-miterlimit:4;stroke-opacity:1;stroke-dasharray:none"
       d="m 77.789844,588.46225 c -0.57227,0.34514 -1.269935,0.58622 -1.716807,1.03539 -0.06951,0.07 0.07641,1.31904 0,1.38055 -0.101222,0.0814 -0.328037,-0.0814 -0.429207,0 -0.101213,0.0814 0.101222,0.26377 0,0.34512 -0.101213,0.0814 -0.328037,-0.0814 -0.429198,0 -3.93e-4,3.2e-4 6.55e-4,1.03382 0,1.03539 -0.127829,0.3087 -0.677425,0.39922 -0.858396,0.69028 -0.127838,0.20579 0.202374,0.52755 0,0.69025 -0.101214,0.0814 -0.36521,-0.10281 -0.429181,0 -0.192062,0.3087 0,0.69026 0,1.03539 0,0.115 0,0.23009 0,0.34515 0,0.115 0.101213,0.26377 0,0.34513 -0.101222,0.0814 -0.328072,-0.0814 -0.429198,0 -0.101222,0.0814 0.04506,0.23599 0,0.34512 -0.101222,0.24405 -0.328064,0.44622 -0.429242,0.69027 -0.08077,0.19472 0,0.80859 0,1.0354 0,0.92035 0,1.84071 0,2.76106 0,1.26548 0,2.53096 0,3.79643 0,0.115 0,0.23009 0,0.34513 0,0.115 -0.101213,0.2638 0,0.34515 0.143223,0.11513 0.715234,-0.11526 0.85844,0 0.101213,0.0814 -0.101222,0.26379 0,0.34513 0.101213,0.0814 0.32802,-0.0814 0.429181,0 0.101213,0.0814 -0.101214,0.26378 0,0.34512 0.101213,0.0814 0.328037,-0.0814 0.429198,0 0.101213,0.0814 -0.101214,0.26379 0,0.34514 0.202383,0.16274 0.586942,-0.0727 0.858396,0 0.303509,0.0814 0.55494,0.26377 0.858422,0.34513 0.135801,0.0363 0.328038,-0.0814 0.429199,0 0.101213,0.0814 -0.127829,0.29368 0,0.34512 2.432143,0 0.14304,-0.23008 0.858393,0.34514 0.14305,0.115 0.71537,-0.11499 0.85841,0 0.10121,0.0814 -0.10122,0.2638 0,0.34514 0.14159,0.11379 1.40623,-0.0833 1.71682,0 0.19203,0.0514 0.24821,0.27237 0.42919,0.34514 0.25592,0.10282 0.60246,-0.10281 0.85838,0 0.18107,0.0727 0.24825,0.27235 0.4292,0.34513 0.111,0.0446 2.27101,0 2.57522,0 0.14305,0 0.32804,0.0814 0.4292,0 0.20238,-0.16274 -0.0904,-0.472 0,-0.69027 0.10122,-0.24404 0.32806,-0.44622 0.42922,-0.69028 0.0452,-0.10924 -0.0639,-0.24223 0,-0.34512 0.0904,-0.14554 0.24821,-0.27237 0.4292,-0.34513 0.12784,-0.0514 0.36521,0.10282 0.4292,0 0.12783,-0.2058 -0.0904,-0.47198 0,-0.69026 0.12783,-0.3087 0.67742,-0.39923 0.8584,-0.69028 0.12783,-0.20579 -0.20238,-0.52755 0,-0.69025 0.10121,-0.0814 0.36521,0.10281 0.42918,0 0.12783,-0.2058 0,-0.46016 0,-0.69027 0,-0.11499 -0.10122,-0.26378 0,-0.34512 0.10121,-0.0814 0.32804,0.0814 0.4292,0 0.21463,-0.17259 -0.21463,-0.86283 0,-1.0354 0.10121,-0.0814 0.32805,0.0814 0.42923,0 0.20239,-0.16274 -0.12783,-0.48447 0,-0.69027 0.0904,-0.14553 0.36521,-0.19076 0.4292,-0.34512 0.14232,-0.34308 -0.18244,-1.4324 0,-1.72567 0.0639,-0.10282 0.32803,0.0814 0.42919,0 0.0956,-0.077 -0.0851,-1.52042 0,-1.72567 0.0639,-0.15442 0.33872,-0.19961 0.4292,-0.34513 0.057,-0.0916 0.0272,-2.35034 0,-2.41592 -0.0639,-0.15442 -0.36521,-0.19076 -0.4292,-0.34513 -0.0904,-0.21828 0.12783,-0.48445 0,-0.69026 -0.32277,-0.51909 -0.3179,0.52412 -0.85839,-0.34512 -0.12783,-0.2058 0.12784,-0.48449 0,-0.69028 -0.0905,-0.14553 -0.33873,-0.19962 -0.42923,-0.34514 -0.0639,-0.10281 0.0639,-0.24223 0,-0.34512 -0.18088,-0.29103 -0.67742,-0.39923 -0.85838,-0.69025 -0.12784,-0.20581 0.20238,-0.52759 0,-0.69027 -0.10122,-0.0814 -0.32804,0.0814 -0.42921,0 -0.10121,-0.0814 0.10123,-0.2638 0,-0.34515 -0.10121,-0.0814 -0.32803,0.0814 -0.42919,0 -0.20238,-0.16274 0.20238,-0.52756 0,-0.69025 -0.20238,-0.16274 -0.6561,0.16273 -0.8584,0 -0.10121,-0.0814 0.10121,-0.26379 0,-0.34513 -0.10121,-0.0814 -0.32806,0.0814 -0.42922,0 -0.88804,-0.71409 1.35702,0.0278 -0.4292,-0.69026 -0.25594,-0.10282 -0.65608,0.16273 -0.8584,0 -0.10121,-0.0814 0.10121,-0.26379 0,-0.34513 -0.20237,-0.16273 -0.60246,0.10282 -0.8584,0 -0.18106,-0.0727 -0.24822,-0.27238 -0.42919,-0.34515 -0.12784,-0.0514 -0.28614,0 -0.42923,0 -0.14304,0 -0.28611,0 -0.4292,0 -0.22448,0 -1.60394,-0.0454 -1.71678,0 -0.74615,0.3 -1.43068,0.69028 -2.14602,1.0354 z"
       id="path3784"
       inkscape:connector-curvature="0" />
    <path
       style="fill:none;stroke:#ff0000;stroke-width:2;stroke-linecap:butt;stroke-linejoin:miter;stroke-miterlimit:4;stroke-opacity:1;stroke-dasharray:none"
       d="m 97.962304,595.01977 c 2.406316,-0.0257 0.52658,-1.19202 0.85841,-1.72567 0.0904,-0.14553 0.3387,-0.19961 0.4292,-0.34512 0.0639,-0.10282 -0.10122,-0.26379 0,-0.34514 0.22617,-0.18187 0.63219,-0.16331 0.858386,-0.34514 0.22617,-0.18188 0.28614,-0.46018 0.42923,-0.69026 0.14304,-0.23009 0.32804,-0.44622 0.4292,-0.69025 0.0451,-0.10925 -0.0639,-0.24224 0,-0.34514 0.0904,-0.14554 0.24824,-0.27238 0.42919,-0.34513 0.12784,-0.0514 0.36521,0.10282 0.4292,0 0.12784,-0.2058 -0.12783,-0.48447 0,-0.69028 0.0639,-0.10281 0.32802,0.0814 0.4292,0 0.10122,-0.0814 -0.10121,-0.26378 0,-0.34512 0.88803,-0.7141 -0.0346,1.09123 0.85839,-0.34513 0.12783,-0.2058 -0.20238,-0.52757 0,-0.69026 0.20237,-0.16274 0.65609,0.16273 0.85843,0 0.10122,-0.0814 -0.0639,-0.24223 0,-0.34513 0.0904,-0.14553 0.28611,-0.2301 0.42918,-0.34515 0.14305,-0.115 0.23723,-0.29368 0.4292,-0.34513 0.27146,-0.0727 0.60248,0.10282 0.8584,0 0.12783,-0.0514 -0.10121,-0.26378 0,-0.34512 0.10122,-0.0814 0.32804,0.0814 0.4292,0 0.10122,-0.0814 -0.10121,-0.26379 0,-0.34514 0.14323,-0.11513 0.71522,0.11526 0.85842,0 0.10122,-0.0814 -0.14304,-0.34513 0,-0.34513 0.0217,0 -0.0277,0.96902 0,1.03539 0.10122,0.24404 0.32804,0.44623 0.4292,0.69028 0.0452,0.10924 -0.0346,0.23352 0,0.34513 0.1099,0.35294 0.34046,0.67865 0.4292,1.03539 0.11226,0.45123 0,0.92035 0,1.38053 0,0.92035 0,1.8407 0,2.76105 0,2.87609 0,5.7522 0,8.62829 0,0.57523 0,1.15044 0,1.72567 0,0.115 0.10121,0.26377 0,0.34512 -0.57228,0.46019 -0.4292,-0.57522 -0.4292,0.34513"
       id="path3786"
       inkscape:connector-curvature="0" />
    <path
       style="fill:none;stroke:#ff0000;stroke-width:2;stroke-linecap:butt;stroke-linejoin:miter;stroke-miterlimit:4;stroke-opacity:1;stroke-dasharray:none"
       d="m 114.27196,586.7366 c 0.28614,0.46017 0.62078,0.90283 0.85839,1.38053 0.0978,0.19666 0,1.67671 0,2.07079 0,1.38052 0,2.76106 0,4.14157 0,0.46018 0,0.92036 0,1.38053 0,0.115 -0.10121,0.26379 0,0.34514 0.0145,0.0121 1.18353,0 1.28762,0 2.86132,0 5.72268,0 8.58404,0"
       id="path3788"
       inkscape:connector-curvature="0" />
    <path
       style="fill:none;stroke:#ff0000;stroke-width:2;stroke-linecap:butt;stroke-linejoin:miter;stroke-miterlimit:4;stroke-opacity:1;stroke-dasharray:none"
       d="m 124.5728,586.39146 c 0,1.72567 0,3.45131 0,5.17698 0,0.0819 -0.048,1.30317 0,1.38054 0.0904,0.14553 0.33871,0.1996 0.42921,0.34512 0.12783,0.20581 -0.0904,0.47198 0,0.69026 0.10121,0.24405 0.32802,0.44621 0.42919,0.69026 0.0925,0.22321 0,1.34881 0,1.72567 0,1.15044 0,2.30088 0,3.45132 0,0.69027 0,1.38052 0,2.07078 0,0.115 0,0.23009 0,0.34515 0,0.115 0.0639,0.24223 0,0.34513 -0.0904,0.14553 -0.33874,0.19962 -0.42919,0.34512 -0.0556,0.0893 0,1.82617 0,2.0708"
       id="path3790"
       inkscape:connector-curvature="0" />
    <path
       style="fill:none;stroke:#ff0000;stroke-width:2;stroke-linecap:butt;stroke-linejoin:miter;stroke-miterlimit:4;stroke-opacity:1;stroke-dasharray:none"
       d="m 31.708672,1002.8188 c 0.516184,-0.3764 1.161432,-1.6311 1.548588,-1.1292 0.387138,0.5019 -2.004858,1.5728 -1.548588,1.1292 0.584283,-0.5681 1.351443,-0.9375 1.935726,-1.5056 0.09126,-0.089 -0.05776,-0.2642 0,-0.3764 0.08148,-0.1588 0.30555,-0.2178 0.387174,-0.3764 0.05776,-0.1122 -0.09126,-0.2877 0,-0.3765 0.80102,-0.77877 -0.03151,1.1902 0.774295,-0.37637 0.05758,-0.11219 -0.11534,-0.3203 0,-0.37641 0.230841,-0.11219 0.543434,0.11218 0.774276,0 0.115339,-0.0561 -0.09126,-0.28769 0,-0.37641 0.09126,-0.0888 0.295899,0.0888 0.387156,0 0.09126,-0.0888 -0.09126,-0.28768 0,-0.37641 0.07913,-0.077 1.007942,0.0746 1.161451,0 0.163322,-0.0793 0.223924,-0.29707 0.387156,-0.37643 0.115339,-0.0561 0.271708,0.0561 0.387137,0 0.163322,-0.0793 0.223925,-0.29705 0.387157,-0.37641 0.115339,-0.0561 0.258092,0 0.387138,0 0.162778,0 2.207724,-0.0561 2.3229,0 0.163322,0.0793 0.223908,0.29706 0.387139,0.37641 0.115339,0.0561 0.295898,-0.0888 0.387155,0 0.09126,0.0888 -0.05776,0.2642 0,0.37643 0.08148,0.15873 0.305532,0.21769 0.387157,0.37641 0.05758,0.11218 -0.09126,0.28769 0,0.37641 0.09126,0.0888 0.295898,-0.0888 0.387156,0 0.09126,0.0888 -0.09126,0.28769 0,0.37641 0.09126,0.0888 0.295881,-0.0888 0.387138,0 0.07913,0.077 -0.07677,0.97997 0,1.12927 0.08148,0.1587 0.305532,0.2177 0.387156,0.3764 0.05776,0.1122 0,0.2509 0,0.3764 0,0.1254 0,0.2509 0,0.3764 0,0.6274 0,1.2547 0,1.8821 0,0.3154 0.0822,1.7221 0,1.882 -0.05758,0.1122 -0.295898,-0.089 -0.387156,0 -0.09126,0.089 0.05776,0.2642 0,0.3764 -0.08148,0.1588 -0.305532,0.2177 -0.387138,0.3765 -0.105019,0.2042 0.105923,1.4026 0,1.5056 -0.09126,0.089 -0.295917,-0.089 -0.387156,0 -0.09126,0.089 0.09126,0.2877 0,0.3764 -0.801038,0.7788 0.03114,-1.1901 -0.774312,0.3764 -0.05776,0.1122 0.09126,0.2877 0,0.3765 -0.09126,0.089 -0.295881,-0.089 -0.387139,0 -0.09126,0.089 0.05776,0.2642 0,0.3764 -0.232289,0.4517 -0.92916,0.6775 -1.161432,1.1292 -0.05776,0.1122 0.09126,0.2877 0,0.3764 -0.09126,0.089 -0.295916,-0.089 -0.387156,0 -0.801038,0.7788 1.224081,-0.03 -0.387174,0.7529 -0.115339,0.056 -0.295881,-0.089 -0.387138,0 -0.182551,0.1774 0.182551,0.5753 0,0.7528 -0.09126,0.089 -0.295899,-0.089 -0.387138,0 -0.182552,0.1775 0.115339,0.5283 0,0.7528 -0.163322,0.3174 -0.611063,0.4354 -0.774294,0.7528 -0.11534,0.2245 0.115339,0.5284 0,0.7529 -0.08148,0.1587 -0.30555,0.2177 -0.387156,0.3764 -0.11534,0.2244 0.18255,0.5753 0,0.7528 -0.09126,0.089 -0.295918,-0.089 -0.387139,0 -0.182551,0.1775 0.182552,0.5754 0,0.7528 -0.182551,0.1775 -0.591815,-0.1775 -0.774312,0 -0.09126,0.089 0.09126,0.2877 0,0.3764 -0.09126,0.089 -0.295898,-0.089 -0.387156,0 -0.09126,0.089 0,0.251 0,0.3765 -0.12892,0 -0.271709,-0.056 -0.387138,0 -1.611219,0.7832 0.413881,-0.026 -0.387138,0.7528 -0.09126,0.089 -0.295899,-0.089 -0.387156,0 -0.09126,0.089 0.09126,0.2877 0,0.3764 -0.09126,0.089 -0.387139,0.1254 -0.387139,0 0,-0.1255 0.258075,0 0.387139,0 0.774294,0 1.548588,0 2.3229,0 2.968131,0 5.93628,0 8.904411,0"
       id="path3782-1"
       inkscape:connector-curvature="0" />
    <path
       style="fill:none;stroke:#ff0000;stroke-width:2;stroke-linecap:butt;stroke-linejoin:miter;stroke-miterlimit:4;stroke-opacity:1;stroke-dasharray:none"
       d="m 59.58339,999.43112 c -0.516203,0.37641 -1.145534,0.63938 -1.548606,1.12928 -0.06265,0.076 0.06898,1.4385 0,1.5056 -0.09126,0.089 -0.295899,-0.089 -0.387139,0 -0.09126,0.089 0.09126,0.2877 0,0.3764 -0.09126,0.089 -0.295899,-0.089 -0.387156,0 -3.62e-4,4e-4 5.79e-4,1.1275 0,1.1292 -0.115339,0.3367 -0.611063,0.4355 -0.774294,0.7529 -0.115339,0.2244 0.182551,0.5754 0,0.7528 -0.09126,0.089 -0.329433,-0.1122 -0.387138,0 -0.17328,0.3367 0,0.7528 0,1.1292 0,0.1255 0,0.251 0,0.3765 0,0.1254 0.09126,0.2877 0,0.3764 -0.09126,0.089 -0.295917,-0.089 -0.387156,0 -0.09126,0.089 0.04074,0.2574 0,0.3764 -0.09126,0.2662 -0.295899,0.4866 -0.387156,0.7528 -0.07279,0.2124 0,0.8819 0,1.1293 0,1.0037 0,2.0075 0,3.0113 0,1.3801 0,2.7603 0,4.1405 0,0.1254 0,0.2509 0,0.3764 0,0.1255 -0.09126,0.2877 0,0.3764 0.129281,0.1256 0.645139,-0.1255 0.774312,0 0.09126,0.089 -0.09126,0.2877 0,0.3765 0.09126,0.089 0.295899,-0.089 0.387138,0 0.09126,0.089 -0.09126,0.2876 0,0.3764 0.09126,0.089 0.295899,-0.089 0.387156,0 0.09126,0.089 -0.09126,0.2876 0,0.3764 0.182552,0.1775 0.52942,-0.079 0.774294,0 0.273755,0.089 0.50054,0.2877 0.774313,0.3764 0.122582,0.04 0.295881,-0.089 0.387138,0 0.09126,0.089 -0.11534,0.3203 0,0.3764 2.193836,0 0.128919,-0.251 0.774294,0.3764 0.128919,0.1254 0.645266,-0.1254 0.774294,0 0.09126,0.089 -0.09126,0.2877 0,0.3764 0.127652,0.1241 1.268443,-0.091 1.548607,0 0.17328,0.056 0.223906,0.2971 0.387138,0.3764 0.230859,0.1122 0.543434,-0.1121 0.774294,0 0.163322,0.079 0.223907,0.2971 0.387138,0.3764 0.10013,0.049 2.048495,0 2.3229,0 0.129101,0 0.295899,0.089 0.387157,0 0.182533,-0.1774 -0.08148,-0.5147 0,-0.7528 0.09126,-0.2661 0.295917,-0.4866 0.387156,-0.7528 0.04074,-0.1192 -0.05758,-0.2642 0,-0.3764 0.08148,-0.1587 0.223888,-0.2971 0.387156,-0.3764 0.115339,-0.056 0.329433,0.1122 0.387138,0 0.11534,-0.2245 -0.08148,-0.5148 0,-0.7528 0.11534,-0.3367 0.611063,-0.4355 0.774295,-0.7529 0.115339,-0.2244 -0.182552,-0.5754 0,-0.7528 0.09126,-0.089 0.329432,0.1122 0.387137,0 0.11534,-0.2245 0,-0.5019 0,-0.7528 0,-0.1255 -0.09126,-0.2877 0,-0.3764 0.09126,-0.089 0.295899,0.089 0.387156,0 0.193599,-0.1883 -0.193614,-0.9411 0,-1.1293 0.09126,-0.089 0.295921,0.089 0.387154,0 0.182552,-0.1775 -0.115333,-0.5284 0,-0.7528 0.08147,-0.1587 0.329434,-0.2081 0.387162,-0.3764 0.12837,-0.3742 -0.164591,-1.5622 0,-1.8821 0.05772,-0.1122 0.295894,0.089 0.387135,0 0.08636,-0.084 -0.07675,-1.6582 0,-1.8821 0.05772,-0.1684 0.305535,-0.2177 0.387154,-0.3764 0.05143,-0.1 0.02445,-2.5634 0,-2.6349 -0.05772,-0.1684 -0.329426,-0.208 -0.387154,-0.3764 -0.08147,-0.238 0.115342,-0.5284 0,-0.7528 -0.291135,-0.5661 -0.286752,0.5716 -0.774297,-0.3764 -0.115333,-0.2245 0.115341,-0.5284 0,-0.7529 -0.08165,-0.1587 -0.305526,-0.2177 -0.387154,-0.3764 -0.05758,-0.1121 0.05772,-0.2641 0,-0.3764 -0.163321,-0.3174 -0.611062,-0.4354 -0.774293,-0.7528 -0.11534,-0.2244 0.182551,-0.5754 0,-0.7528 -0.09126,-0.089 -0.295899,0.089 -0.387139,0 -0.09126,-0.089 0.09126,-0.2877 0,-0.3764 -0.09126,-0.089 -0.295899,0.089 -0.387156,0 -0.182551,-0.1775 0.182551,-0.5754 0,-0.7529 -0.182551,-0.1774 -0.591797,0.1775 -0.774294,0 -0.09126,-0.089 0.09126,-0.28765 0,-0.37637 -0.09126,-0.0888 -0.295917,0.0888 -0.387156,0 -0.801038,-0.77881 1.224063,0.0304 -0.387157,-0.75282 -0.230841,-0.11219 -0.591778,0.17749 -0.774294,0 -0.09126,-0.0888 0.09126,-0.28768 0,-0.37641 -0.182551,-0.17749 -0.543434,0.11218 -0.774293,0 -0.163322,-0.0793 -0.223907,-0.29707 -0.387139,-0.37643 -0.115339,-0.0561 -0.25811,0 -0.387174,0 -0.128919,0 -0.258074,0 -0.387138,0 -0.202487,0 -1.446793,-0.0495 -1.548588,0 -0.673042,0.32719 -1.290497,0.75284 -1.935745,1.12925 z"
       id="path3784-7"
       inkscape:connector-curvature="0" />
    <path
       style="fill:none;stroke:#ff0000;stroke-width:2;stroke-linecap:butt;stroke-linejoin:miter;stroke-miterlimit:4;stroke-opacity:1;stroke-dasharray:none"
       d="m 79.498144,999.06718 c -0.51621,0.37642 -1.14552,0.63936 -1.54861,1.12922 -0.0626,0.076 0.069,1.4386 0,1.5057 -0.0913,0.089 -0.295881,-0.089 -0.38714,0 -0.09126,0.089 0.09126,0.2877 0,0.3764 -0.09126,0.089 -0.295894,-0.089 -0.387136,0 -3.84e-4,4e-4 5.77e-4,1.1275 0,1.1292 -0.115341,0.3367 -0.61106,0.4354 -0.774297,0.7529 -0.115333,0.2244 0.182552,0.5753 0,0.7528 -0.09126,0.089 -0.329426,-0.1122 -0.387154,0 -0.173279,0.3367 0,0.7528 0,1.1292 0,0.1254 0,0.251 0,0.3764 0,0.1255 0.09126,0.2877 0,0.3764 -0.09126,0.089 -0.29592,-0.089 -0.387136,0 -0.09126,0.089 0.04069,0.2574 0,0.3765 -0.09126,0.2661 -0.29592,0.4866 -0.387179,0.7528 -0.07282,0.2124 0,0.8819 0,1.1292 0,1.0038 0,2.0076 0,3.0113 0,1.3802 0,2.7604 0,4.1406 0,0.1254 0,0.2509 0,0.3764 0,0.1254 -0.09126,0.2877 0,0.3764 0.129287,0.1256 0.645142,-0.1256 0.774315,0 0.09126,0.089 -0.09126,0.2877 0,0.3764 0.09126,0.089 0.295895,-0.089 0.387154,0 0.09126,0.089 -0.09126,0.2877 0,0.3764 0.09126,0.089 0.295885,-0.089 0.387144,0 0.09125,0.089 -0.09126,0.2877 0,0.3764 0.182544,0.1775 0.529434,-0.079 0.774289,0 0.27376,0.089 0.50056,0.2877 0.77432,0.3765 0.12258,0.04 0.29589,-0.089 0.38715,0 0.0913,0.089 -0.11534,0.3202 0,0.3764 2.19382,0 0.12892,-0.251 0.77428,0.3764 0.12909,0.1254 0.64528,-0.1255 0.77429,0 0.0913,0.089 -0.0913,0.2877 0,0.3764 0.12765,0.1241 1.26846,-0.091 1.5486,0 0.17329,0.056 0.22393,0.2971 0.38716,0.3764 0.23085,0.1122 0.54344,-0.1122 0.77428,0 0.16332,0.079 0.22392,0.2971 0.38716,0.3764 0.10013,0.049 2.04849,0 2.32289,0 0.12892,0 0.29589,0.089 0.38715,0 0.18255,-0.1775 -0.0815,-0.5148 0,-0.7528 0.0913,-0.2662 0.29591,-0.4867 0.38717,-0.7528 0.0408,-0.1192 -0.0576,-0.2642 0,-0.3764 0.0815,-0.1588 0.22389,-0.2971 0.38713,-0.3765 0.11534,-0.056 0.32944,0.1122 0.38717,0 0.11533,-0.2244 -0.0815,-0.5147 0,-0.7528 0.11533,-0.3367 0.61104,-0.4354 0.77427,-0.7528 0.11534,-0.2245 -0.18254,-0.5754 0,-0.7528 0.0913,-0.089 0.32945,0.1121 0.38715,0 0.11534,-0.2245 0,-0.5019 0,-0.7529 0,-0.1254 -0.0912,-0.2876 0,-0.3764 0.0913,-0.089 0.2959,0.089 0.38714,0 0.19362,-0.1882 -0.19359,-0.941 0,-1.1292 0.0913,-0.089 0.29592,0.089 0.38718,0 0.18255,-0.1775 -0.11535,-0.5284 0,-0.7528 0.0815,-0.1588 0.32943,-0.2081 0.38713,-0.3764 0.12838,-0.3742 -0.16458,-1.5623 0,-1.8821 0.0576,-0.1122 0.2959,0.089 0.38716,0 0.0862,-0.084 -0.0768,-1.6582 0,-1.8821 0.0575,-0.1684 0.30551,-0.2177 0.38714,-0.3764 0.0514,-0.1 0.0244,-2.5634 0,-2.6349 -0.0576,-0.1684 -0.32944,-0.2081 -0.38714,-0.3764 -0.0815,-0.2381 0.11534,-0.5284 0,-0.7528 -0.29115,-0.5662 -0.28677,0.5716 -0.77429,-0.3764 -0.11535,-0.2245 0.11534,-0.5284 0,-0.7529 -0.0816,-0.1587 -0.30556,-0.2177 -0.38718,-0.3764 -0.0577,-0.1122 0.0576,-0.2642 0,-0.3764 -0.16332,-0.3174 -0.61106,-0.4354 -0.77429,-0.7528 -0.11534,-0.2245 0.18255,-0.5754 0,-0.7528 -0.0913,-0.089 -0.29588,0.089 -0.38714,0 -0.0913,-0.089 0.0913,-0.2878 0,-0.3765 -0.0913,-0.089 -0.2959,0.089 -0.38713,0 -0.18256,-0.1775 0.18252,-0.57534 0,-0.75279 -0.18256,-0.17749 -0.59182,0.17749 -0.7743,0 -0.0913,-0.0888 0.0913,-0.2877 0,-0.37641 -0.0913,-0.0888 -0.29591,0.0888 -0.38717,0 -0.80103,-0.77881 1.22407,0.0304 -0.38715,-0.75283 -0.23086,-0.11218 -0.5918,0.17749 -0.77429,0 -0.0913,-0.0888 0.0913,-0.28768 0,-0.3764 -0.18255,-0.17749 -0.54344,0.11219 -0.77429,0 -0.16332,-0.0793 -0.22391,-0.29707 -0.38714,-0.37643 -0.11534,-0.0561 -0.25811,0 -0.38717,0 -0.12892,0 -0.25809,0 -0.38716,0 -0.20249,0 -1.44679,-0.0495 -1.54857,0 -0.67304,0.32718 -1.2905,0.75283 -1.93576,1.12924 z"
       id="path3784-7-9"
       inkscape:connector-curvature="0" />
    <path
       style="fill:none;stroke:#ff0000;stroke-width:2;stroke-linecap:butt;stroke-linejoin:miter;stroke-miterlimit:4;stroke-opacity:1;stroke-dasharray:none"
       d="m 99.242764,996.8087 c -0.51621,0.37641 -1.14552,0.63935 -1.54861,1.12924 -0.0626,0.0763 0.069,1.43859 0,1.50566 -0.0913,0.0888 -0.2959,-0.0888 -0.38714,0 -0.0913,0.0888 0.0913,0.28769 0,0.37641 -0.0913,0.0888 -0.2959,-0.0888 -0.38716,0 -3.5e-4,3.6e-4 6.1e-4,1.12749 0,1.12919 -0.11534,0.3367 -0.61106,0.4355 -0.77429,0.7529 -0.11534,0.2244 0.18255,0.5754 0,0.7528 -0.0913,0.089 -0.32943,-0.1122 -0.38714,0 -0.17328,0.3367 0,0.7528 0,1.1292 0,0.1255 0,0.251 0,0.3765 0,0.1254 0.0913,0.2876 0,0.3764 -0.0913,0.089 -0.29591,-0.089 -0.38715,0 -0.0913,0.089 0.0408,0.2573 0,0.3764 -0.0913,0.2661 -0.29591,0.4866 -0.38716,0.7528 -0.0728,0.2124 0,0.8819 0,1.1292 0,1.0038 0,2.0076 0,3.0114 0,1.3801 0,2.7603 0,4.1405 0,0.1254 0,0.2509 0,0.3764 0,0.1254 -0.0913,0.2877 0,0.3764 0.12928,0.1257 0.64514,-0.1256 0.77431,0 0.0913,0.089 -0.0913,0.2877 0,0.3764 0.0913,0.089 0.2959,-0.089 0.38714,0 0.0913,0.089 -0.0913,0.2877 0,0.3764 0.0913,0.089 0.2959,-0.089 0.38716,0 0.0913,0.089 -0.0913,0.2877 0,0.3765 0.18255,0.1774 0.52943,-0.079 0.77429,0 0.27376,0.089 0.50055,0.2877 0.77431,0.3764 0.12258,0.04 0.29589,-0.089 0.38714,0 0.0913,0.089 -0.11533,0.3203 0,0.3764 2.193836,0 0.12892,-0.251 0.7743,0.3764 0.12892,0.1254 0.64526,-0.1254 0.774286,0 0.0913,0.089 -0.0913,0.2877 0,0.3764 0.12765,0.1241 1.26844,-0.091 1.54861,0 0.17328,0.056 0.22391,0.2971 0.38713,0.3764 0.23086,0.1122 0.54344,-0.1122 0.7743,0 0.16332,0.079 0.22391,0.2971 0.38714,0.3764 0.10013,0.049 2.0485,0 2.3229,0 0.12892,0 0.29589,0.089 0.38715,0 0.18256,-0.1774 -0.0815,-0.5147 0,-0.7528 0.0913,-0.2662 0.29592,-0.4867 0.38716,-0.7528 0.0408,-0.1192 -0.0577,-0.2642 0,-0.3764 0.0815,-0.1588 0.2239,-0.2971 0.38716,-0.3764 0.11533,-0.056 0.32942,0.1121 0.38713,0 0.11535,-0.2245 -0.0815,-0.5148 0,-0.7529 0.11535,-0.3366 0.61107,-0.4354 0.7743,-0.7528 0.11534,-0.2245 -0.18255,-0.5754 0,-0.7528 0.0912,-0.089 0.32943,0.1122 0.38714,0 0.11533,-0.2245 0,-0.5019 0,-0.7528 0,-0.1255 -0.0913,-0.2877 0,-0.3764 0.0913,-0.089 0.29589,0.089 0.38715,0 0.1936,-0.1883 -0.19361,-0.9411 0,-1.1293 0.0913,-0.089 0.29592,0.089 0.38717,0 0.18254,-0.1775 -0.11533,-0.5284 0,-0.7528 0.0815,-0.1588 0.32944,-0.2081 0.38715,-0.3764 0.12837,-0.3742 -0.16459,-1.5623 0,-1.8821 0.0575,-0.1122 0.29589,0.089 0.38713,0 0.0864,-0.084 -0.0768,-1.6582 0,-1.8821 0.0577,-0.1684 0.30554,-0.2177 0.38716,-0.3764 0.0514,-0.1 0.0245,-2.5634 0,-2.6349 -0.0575,-0.1684 -0.32943,-0.208 -0.38716,-0.3764 -0.0815,-0.2381 0.11534,-0.5284 0,-0.7528 -0.29113,-0.5662 -0.28675,0.5716 -0.77428,-0.3764 -0.11533,-0.2245 0.11534,-0.5284 0,-0.7529 -0.0816,-0.1587 -0.30554,-0.2177 -0.38717,-0.3764 -0.0577,-0.1122 0.0576,-0.2642 0,-0.3764 -0.16332,-0.31739 -0.61106,-0.43539 -0.77429,-0.7528 -0.11534,-0.22446 0.18255,-0.57541 0,-0.75283 -0.0913,-0.0888 -0.2959,0.0888 -0.38714,0 -0.0913,-0.0888 0.0913,-0.2877 0,-0.37642 -0.0913,-0.0888 -0.2959,0.0888 -0.38716,0 -0.18255,-0.17749 0.18256,-0.57538 0,-0.75283 -0.18255,-0.17749 -0.59179,0.17749 -0.77429,0 -0.0913,-0.0888 0.0913,-0.28768 0,-0.37641 -0.0913,-0.0888 -0.29592,0.0888 -0.38716,0 -0.80103,-0.77881 1.22406,0.0304 -0.38715,-0.75281 -0.23084,-0.11218 -0.59178,0.17748 -0.7743,0 -0.0913,-0.0888 0.0913,-0.28769 0,-0.37641 -0.18253,-0.17749 -0.54343,0.11219 -0.77427,0 -0.16332,-0.0793 -0.22392,-0.29708 -0.38716,-0.37644 -0.11533,-0.0561 -0.25811,0 -0.38717,0 -0.12892,0 -0.25808,0 -0.38714,0 -0.20249,0 -1.4468,-0.0495 -1.54859,0 -0.67304,0.3272 -1.290496,0.75285 -1.935736,1.12925 z"
       id="path3784-7-4"
       inkscape:connector-curvature="0" />
  </g>
</svg>
