<?xml version="1.0" encoding="UTF-8" standalone="no"?>
<!-- Created with Inkscape (http://www.inkscape.org/) -->

<svg
   xmlns:dc="http://purl.org/dc/elements/1.1/"
   xmlns:cc="http://creativecommons.org/ns#"
   xmlns:rdf="http://www.w3.org/1999/02/22-rdf-syntax-ns#"
   xmlns:svg="http://www.w3.org/2000/svg"
   xmlns="http://www.w3.org/2000/svg"
   xmlns:sodipodi="http://sodipodi.sourceforge.net/DTD/sodipodi-0.dtd"
   xmlns:inkscape="http://www.inkscape.org/namespaces/inkscape"
   width="1200"
   height="600"
   id="svg4572"
   version="1.1"
   inkscape:version="0.48.4 r9939"
   sodipodi:docname="Human_evolution_scheme_1.svg">
  <defs
     id="defs4574" />
  <sodipodi:namedview
     id="base"
     pagecolor="#ffffff"
     bordercolor="#666666"
     borderopacity="1.0"
     inkscape:pageopacity="1"
     inkscape:pageshadow="2"
     inkscape:zoom="0.6"
     inkscape:cx="550.35955"
     inkscape:cy="248.10855"
     inkscape:current-layer="layer1"
     inkscape:document-units="px"
     showgrid="false"
     inkscape:window-width="1366"
     inkscape:window-height="706"
     inkscape:window-x="-8"
     inkscape:window-y="-8"
     inkscape:window-maximized="1" />
  <metadata
     id="metadata4577">
    <rdf:RDF>
      <cc:Work
         rdf:about="">
        <dc:format>image/svg+xml</dc:format>
        <dc:type
           rdf:resource="http://purl.org/dc/dcmitype/StillImage" />
        <dc:title></dc:title>
      </cc:Work>
    </rdf:RDF>
  </metadata>
  <g
     id="layer1"
     inkscape:label="Layer 1"
     inkscape:groupmode="layer">
    <path
       d="m 109.44906,588.32193 c -3.10084,0 -6.19705,0 -9.29789,0 -18.312157,-7.29484 -39.855317,-11.65147 -55.787217,-21.10776 -4.27701,-14.52636 9.46525,-24.99581 13.9468,-37.99398 4.32353,-12.53801 2.35703,-28.72765 9.2979,-42.21552 8.56331,-16.63293 28.25621,-26.22006 32.542517,-42.21553 1.18083,-4.4073 0.31615,-18.5664 0,-29.55088 -0.669427,-23.2523 -6.210977,-29.74084 -18.595717,-46.43708 10.98076,-14.94852 2.64059,-47.7331 4.64891,-80.20951 2.85911,-46.25978 19.051337,-60.76081 37.191497,-88.65262 15.9319,-24.49345 17.3684,-39.84724 37.19147,-42.21552 34.40212,-4.1118 44.17882,17.61231 51.13828,50.65863 -5.52293,11.86678 -24.6719,11.37287 -37.19147,16.88621 11.86873,28.31818 11.86873,68.77755 0,97.09573 14.55581,13.42032 26.40595,33.88219 51.13827,37.99397 15.23457,2.53294 31.38496,-9.9122 46.48937,0 -10.91105,4.16246 -22.84023,7.40461 -37.19151,8.44311 -5.49037,6.269 -4.02131,18.86191 -18.59572,16.88622 -19.66034,-5.26428 -29.87407,2.84954 -41.84041,-4.22156 24.24417,-7.95763 18.60504,-31.61944 -13.94681,-29.55088 -11.3341,28.5166 18.44696,40.3074 27.89361,71.76641 12.4173,41.35433 -4.73726,105.19688 13.94681,130.86814 10.01844,10.60033 36.37324,6.37033 41.84041,21.10777 -25.64818,5.61044 -52.48183,3.57144 -74.38297,0 7.29417,-32.68327 -15.14623,-52.94249 -18.59572,-75.98795 -2.28728,-15.29469 19.18614,-43.09785 -9.29789,-54.88019 -18.74448,36.45311 -43.486127,67.45619 -65.085077,101.31726 2.03625,20.54208 45.341057,21.79589 32.542557,42.21553 z"
       id="path4522"
       inkscape:connector-curvature="0"
       style="fill-rule:evenodd" />
    <path
       d="m 472.31357,235.9956 c 9.59075,15.21027 20.61803,29.1245 23.24469,50.65865 -12.46845,11.68947 -29.79969,15.01606 -51.1383,8.44311 -3.88651,23.04122 -3.65404,42.65879 -13.94681,67.54484 8.70281,30.80889 72.65358,91.13066 23.2447,113.98193 1.67827,-30.93553 -16.08533,-58.54027 -41.84042,-75.98795 -32.83541,27.13193 19.13965,63.84255 32.54253,88.65261 1.97582,26.78154 -2.90093,66.2615 0,80.20951 4.08179,13.1797 37.36349,-0.15197 37.1915,16.88621 -22.7426,3.03528 -39.58103,3.11128 -60.43617,-4.22154 -7.20586,-24.41325 -10.17187,-52.68077 -9.29786,-84.43107 -28.38175,13.63139 -42.44942,40.2525 -65.08507,59.10174 1.7015,15.34535 19.92997,15.67463 23.24466,29.55087 -31.77082,3.00995 -35.09017,-7.61146 -51.13827,-25.32931 14.23036,-27.88336 31.99859,-52.56256 55.78721,-71.76641 -10.22765,-24.48501 -25.61099,-44.28408 -41.84041,-63.32329 11.78039,-55.50499 16.66178,-116.66262 51.13827,-151.97592 4.33746,-4.44529 17.96348,-6.86002 32.54256,-16.88621 16.80124,-11.55439 18.50274,-27.30079 55.78719,-21.10777 z"
       id="path4524"
       inkscape:connector-curvature="0"
       style="fill-rule:evenodd" />
    <path
       d="m 760.94997,410.09701 c -7.49408,8.67528 -23.30978,9.78977 -41.84043,8.4431 -31.52441,27.4823 -2.9939,73.31571 0,105.53883 1.90607,20.49141 9.53962,52.59633 -18.59573,59.10173 -9.79065,-9.39296 4.89998,-20.35633 0,-37.99398 -2.33377,-17.58276 -17.8891,-23.15522 -18.59573,-42.21553 -19.03739,15.28624 -7.28488,32.57773 -18.59574,54.8802 -1.62248,16.95376 21.83139,11.13645 27.89361,21.10777 -6.42947,17.17327 -40.65493,5.16295 -55.78722,4.22154 -1.98509,-19.30516 -7.07103,-35.79454 -4.64893,-59.10173 -24.70909,9.92908 -39.73445,28.64745 -65.08508,37.99396 -0.33473,14.3744 13.67251,15.7253 23.24467,21.10777 -24.76953,15.30312 -48.80452,-6.22679 -46.48935,-29.55087 14.84405,-16.07145 38.27933,-24.34148 51.13828,-42.21553 -2.90559,-15.65774 -13.06816,-24.71719 -18.59574,-37.99398 9.68373,-36.49955 50.25963,-72.63603 92.97869,-88.65262 25.13215,-9.42249 48.76266,-16.25719 79.0319,-8.4431 4.07709,11.77813 11.12952,20.85026 13.9468,33.77244 z m -106.9255,80.2095 c 1.31099,-11.03937 -1.69685,-18.16113 -13.94681,-16.88622 -1.311,11.03937 1.69687,18.16113 13.94681,16.88622 z"
       id="path4532"
       inkscape:connector-curvature="0"
       style="fill-rule:evenodd" />
    <path
       d="m -139.84985,143.73586 c 15.14159,-13.47099 27.16373,11.71058 23.24469,29.55087 -21.05502,2.2332 -11.01332,-23.77579 -23.24469,-29.55087 z"
       id="path4526"
       inkscape:connector-curvature="0"
       style="fill:#ffffff;fill-rule:evenodd" />
    <path
       d="m -678.77568,372.22195 c 12.24996,-1.27491 15.2578,5.84685 13.94681,16.88622 -12.24994,1.27491 -15.25781,-5.84685 -13.94681,-16.88622 z"
       id="path4536"
       inkscape:connector-curvature="0"
       style="fill:#ffffff;fill-rule:evenodd" />
    <g
       id="g4611"
       transform="translate(-1.3838989e-4,0)">
      <path
         style="fill:#ffffff;fill-rule:evenodd"
         inkscape:connector-curvature="0"
         id="path4516"
         d="m 930.31674,145.05887 c 40.29235,0 80.57996,0 120.87226,0 -14.0258,57.6242 -29.0511,114.33655 -41.8403,173.08367 -27.59149,-4.50017 -42.35649,-20.63917 -65.08515,-29.55086 5.35093,-35.81566 -11.41778,-51.54939 -18.59572,-75.98796 32.05905,3.78252 16.48046,-35.69324 27.89361,-50.65864 -4.24915,-7.40038 -8.64239,-14.66567 -23.2447,-12.66466 0,-1.41 0,-2.81576 0,-4.22155 z" />
      <path
         style="fill:#ffffff;fill-rule:evenodd"
         inkscape:connector-curvature="0"
         id="path4520"
         d="m 1060.4869,153.50198 c 0,130.86814 0,261.7363 0,392.60444 -1.5481,0 -3.1008,0 -4.6489,0 -14.0584,5.85106 -23.8026,6.28589 -32.5425,4.22154 -13.6586,-3.22526 -11.1622,-11.38974 -18.5958,-21.10775 -9.15375,-11.97233 -17.46603,-44.63027 -18.59574,-59.10176 -1.65501,-21.20063 3.57506,-49.18952 9.29789,-71.76639 6.47595,-25.52774 15.57395,-49.46394 27.89365,-59.10175 -9.0515,-64.39135 27.2939,-120.61821 32.5425,-185.74833 1.5481,0 3.1008,0 4.6489,0 z" />
      <path
         style="fill:#ffffff;fill-rule:evenodd"
         inkscape:connector-curvature="0"
         id="path4528"
         d="m 944.26355,318.14254 c 19.95324,1.58308 30.89684,11.34755 51.1383,12.66467 11.41775,36.53755 -13.11465,67.1058 -13.9468,105.53882 -20.29725,-33.43892 -70.92415,-73.50567 -37.1915,-118.20349 z" />
      <path
         style="fill:#ffffff;fill-rule:evenodd"
         inkscape:connector-curvature="0"
         id="path4534"
         d="m 1060.4869,558.77107 c 0,9.84889 0,19.70197 0,29.55086 -69.73399,0 -139.46801,0 -209.20204,0 0.0559,-5.57667 8.14959,-3.85852 9.29786,-8.44311 -13.85846,-5.70754 -24.43479,-14.39548 -32.54252,-25.3293 13.01701,-57.13028 64.05301,-79.73669 79.03188,-135.0897 15.17879,-1.1187 9.85575,16.37964 23.24466,16.88621 3.14733,9.80668 15.44843,11.3011 18.59575,21.10777 8.46571,14.82609 -0.26502,45.27193 13.94681,54.88019 -8.63773,21.70723 -13.99329,46.39486 -18.59575,71.76638 14.35593,1.35089 11.45034,-17.27035 13.9468,-25.3293 3.5425,-11.42352 6.5457,-24.40479 9.29789,-33.77242 10.66001,14.23929 23.97455,26.07232 23.24467,50.65861 29.00469,-0.40105 49.16249,-8.83146 69.73399,-16.88619 z" />
      <path
         style="fill-rule:evenodd"
         inkscape:connector-curvature="0"
         id="path4538"
         d="m 1063.3785,111.87339 c 7.9078,-1.6643 8.7725,3.52759 9.2978,9.04509 -1.548,0 -3.1008,0 -4.6489,0 -5.2486,69.77383 -41.594,130.00962 -32.5425,198.992 -12.3197,10.32498 -21.4177,35.96781 -27.8937,63.31565 -5.7228,24.18657 -10.95282,54.17105 -9.29781,76.88327 1.12968,15.50329 9.44201,50.48971 18.59571,63.31564 7.4337,10.4109 4.9418,19.1575 18.5958,22.61274 8.74,2.21151 18.4841,1.7457 32.5425,-4.52255 1.5481,0 3.1009,0 4.6489,0 0,4.52255 0,9.04508 0,13.56763 -20.5715,8.62902 -40.7293,17.66053 -69.734,18.09015 0.7299,-26.33927 -12.58465,-39.01597 -23.24466,-54.27052 -2.75216,10.03554 -5.75536,23.94236 -9.29786,36.18037 -2.49649,8.63354 0.4091,28.58247 -13.9468,27.13526 4.60245,-27.18048 9.95802,-53.62832 18.59575,-76.88326 -14.21181,-10.29331 -5.4811,-42.9099 -13.94681,-58.79309 -3.14733,-10.50588 -15.44842,-12.10685 -18.59575,-22.61274 -13.38894,-0.54269 -8.0659,-19.28865 -23.24466,-18.09017 -14.97888,59.29962 -66.01488,83.51785 -79.03192,144.72145 8.10777,11.7134 18.6841,21.0208 32.54256,27.13524 -1.14828,4.9115 -9.24208,3.0708 -9.29786,9.04509 -4.64895,0 -9.29789,0 -13.94681,0 -8.37272,-14.46762 -32.97491,-13.14704 -41.84041,-27.13523 15.6576,-20.763 10.07889,-48.57214 23.24466,-76.88327 13.77479,-29.61816 48.51628,-34.61105 37.19147,-81.40583 -2.87766,-11.89881 -13.51445,-8.3848 -13.9468,-22.61272 2.81728,-13.4998 12.24997,-24.46245 13.9468,-40.70292 2.26406,-21.663 -7.02917,-48.17867 -4.64891,-72.36073 1.79448,-18.2123 15.59252,-44.4114 13.9468,-72.36074 7.45223,-13.85707 24.6812,-18.19872 27.89361,-36.18035 -1.48768,-21.04794 -1.49232,-40.64864 13.94681,-45.22546 7.74975,0 15.49487,0 23.24466,0 0,1.50601 0,3.01654 0,4.52255 14.60231,-2.14369 18.99555,5.63961 23.24467,13.56762 -11.41312,16.03243 4.16546,58.32276 -27.89361,54.27056 7.17796,26.18102 23.94668,43.03655 18.59575,81.40582 22.72863,9.54709 37.49365,26.83679 65.08512,31.65782 12.7892,-62.93575 27.8145,-123.69163 41.8404,-185.42437 z m -69.73406,312.05564 c 0.83216,-41.17325 25.36456,-73.921 13.94676,-113.06363 -20.24141,-1.41555 -31.18499,-11.87169 -51.13822,-13.56764 -33.73269,47.88471 16.89422,90.80819 37.19146,126.63127 z" />
    </g>
    <text
       xml:space="preserve"
       style="font-size:88.60186005px;font-style:normal;font-weight:normal;line-height:125%;letter-spacing:0px;word-spacing:0px;fill:#ff0000;fill-opacity:1;stroke:none;font-family:Sans"
       x="102.06397"
       y="139.86357"
       id="text4546"
       sodipodi:linespacing="125%"
       transform="scale(1.0493989,0.95292649)"><tspan
         sodipodi:role="line"
         id="tspan4548"
         x="102.06397"
         y="139.86357"
         style="font-size:44.30093002px;font-style:normal;font-variant:normal;font-weight:normal;font-stretch:normal;fill:#ff0000;font-family:Andalus;-inkscape-font-specification:Andalus">JUnit</tspan></text>
    <text
       xml:space="preserve"
       style="font-size:88.60186005px;font-style:normal;font-weight:normal;line-height:125%;letter-spacing:0px;word-spacing:0px;fill:#ff0000;fill-opacity:1;stroke:none;font-family:Sans"
       x="833.92554"
       y="101.80996"
       id="text4546-8"
       sodipodi:linespacing="125%"
       transform="scale(1.0493989,0.95292649)"><tspan
         sodipodi:role="line"
         id="tspan4548-8"
         x="833.92554"
         y="101.80996"
         style="font-size:44.30093002px;font-style:normal;font-variant:normal;font-weight:normal;font-stretch:normal;fill:#ff0000;font-family:Andalus;-inkscape-font-specification:Andalus">SPOCK</tspan></text>
    <path
       style="fill:none;stroke:#ff0000;stroke-width:1.5;stroke-linecap:butt;stroke-linejoin:miter;stroke-opacity:1;stroke-miterlimit:4;stroke-dasharray:none"
       d="m 958.42432,171.82561 c -0.49105,0.19642 -0.97141,0.42201 -1.47314,0.58925 -0.16623,0.0554 -0.69028,0 -0.88389,0 -0.49104,0 -0.98209,0 -1.47313,0 -0.0982,0 -0.19642,0 -0.29463,0 -0.0982,0 -0.22519,-0.0694 -0.29463,0 -0.0694,0.0694 0.0878,0.25071 0,0.29463 -0.0862,0.0431 -1.52661,0 -1.76777,0 -0.98209,0 -1.96418,0 -2.94628,0 -0.24944,0 -1.02011,0.0528 -1.17851,0 -0.13176,-0.0439 -0.16286,-0.25071 -0.29462,-0.29463 -0.20044,-0.0668 -1.31692,0.0781 -1.47314,0 -0.39314,-0.19656 -0.19612,-0.39269 -0.58926,-0.58925 -0.0878,-0.0439 -0.22518,0.0694 -0.29463,0 -0.0694,-0.0695 0.0694,-0.22519 0,-0.29463 -0.13889,-0.13889 -0.41357,0.0878 -0.58925,0 -1.22617,-0.61309 0.31497,0.0203 -0.29463,-0.58926 -0.13889,-0.13889 -0.45037,0.13889 -0.58926,0 -0.0694,-0.0694 0.0694,-0.22518 0,-0.29462 -0.0694,-0.0694 -0.22518,0.0694 -0.29462,0 -0.0695,-0.0694 0.0694,-0.22519 0,-0.29463 -0.0695,-0.0695 -0.20679,0.0439 -0.29463,0 -0.12423,-0.0621 -0.19642,-0.19642 -0.29463,-0.29463 -0.0982,-0.0982 -0.19642,-0.19642 -0.29463,-0.29463 -0.0982,-0.0982 -0.19642,-0.19642 -0.29463,-0.29463 -0.0982,-0.0982 -0.23251,-0.1704 -0.29462,-0.29462 -0.0439,-0.0878 0.0439,-0.20679 0,-0.29463 -0.0621,-0.12423 -0.21759,-0.17907 -0.29463,-0.29463 -0.12181,-0.18272 -0.17281,-0.40653 -0.29463,-0.58925 -0.15408,-0.23113 -0.46503,-0.34081 -0.58925,-0.58926 -0.0879,-0.17568 0.13888,-0.45037 0,-0.58926 -0.0695,-0.0694 -0.25071,0.0878 -0.29463,0 -0.0878,-0.17568 0.0878,-0.41357 0,-0.58925 -0.0439,-0.0878 -0.22519,0.0694 -0.29463,0 -0.15528,-0.15528 -0.17281,-0.40654 -0.29463,-0.58926 -0.077,-0.11556 -0.2507,-0.16286 -0.29463,-0.29462 -0.0621,-0.18634 0.0879,-0.41358 0,-0.58926 -0.0439,-0.0878 -0.22518,0.0694 -0.29462,0 -0.0694,-0.0694 0.0694,-0.22518 0,-0.29463 -0.0694,-0.0694 -0.22519,0.0694 -0.29463,0 -0.0694,-0.0694 0.0439,-0.20679 0,-0.29463 -0.0621,-0.12422 -0.23252,-0.1704 -0.29463,-0.29462 -0.0439,-0.0878 0.0694,-0.22519 0,-0.29463 -0.0694,-0.0694 -0.25071,0.0878 -0.29463,0 -0.0878,-0.17568 0.0621,-0.40292 0,-0.58926 -0.0439,-0.13176 -0.23251,-0.1704 -0.29462,-0.29463 -0.0439,-0.0878 0.0439,-0.20678 0,-0.29462 -0.0621,-0.12423 -0.23252,-0.1704 -0.29463,-0.29463 -0.0878,-0.17568 0.13889,-0.45037 0,-0.58926 -0.0695,-0.0694 -0.22519,0.0694 -0.29463,0 -0.0694,-0.0694 0.0439,-0.20678 0,-0.29462 -0.0621,-0.12423 -0.23252,-0.17041 -0.29463,-0.29463 -0.0799,-0.15983 0.0806,-1.0979 0,-1.17851 -0.0694,-0.0694 -0.22518,0.0694 -0.29463,0 -0.0694,-0.0694 0,-0.19642 0,-0.29463 0,-0.11228 0.0286,-1.44454 0,-1.47314 -0.0694,-0.0695 -0.19641,0 -0.29462,0"
       id="path4639"
       inkscape:connector-curvature="0" />
    <path
       style="fill:none;stroke:#ff0000;stroke-width:1px;stroke-linecap:butt;stroke-linejoin:miter;stroke-opacity:1"
       d="m 934.55946,160.92438 c 0.39284,-0.0982 0.78568,-0.19642 1.17852,-0.29463 0.0982,-0.0982 0.1704,-0.23251 0.29462,-0.29463 0.17568,-0.0878 0.45037,0.13889 0.58926,0 0.0694,-0.0694 -0.0694,-0.22518 0,-0.29463 0.0694,-0.0694 0.20679,0.0439 0.29463,0 0.12422,-0.0621 0.1704,-0.23251 0.29462,-0.29462 0.0879,-0.0439 0.22519,0.0694 0.29463,0 0.0695,-0.0694 -0.0439,-0.20679 0,-0.29463 0.0621,-0.12423 0.19642,-0.19642 0.29463,-0.29463 0.0982,-0.0982 0.1704,-0.23251 0.29463,-0.29463 0.0878,-0.0439 0.22518,0.0695 0.29463,0 0.0694,-0.0694 -0.0694,-0.22518 0,-0.29462 0.0694,-0.0695 0.22518,0.0694 0.29462,0 0.13889,-0.13889 -0.13889,-0.45037 0,-0.58926 0.0694,-0.0695 0.22519,0.0694 0.29463,0 0.0694,-0.0695 0,-0.19642 0,-0.29463 0,-0.0982 0,-0.19642 0,-0.29463 0,-0.0982 0,-0.39283 0,-0.29462 0,0.19641 -0.19642,0.58925 0,0.58925 0.81131,0 0.0832,-0.67246 0.29463,-0.88388 0.0694,-0.0694 0.22518,0.0694 0.29463,0 0.0694,-0.0694 -0.0439,-0.20679 0,-0.29463 0.0621,-0.12423 0.19642,-0.19642 0.29462,-0.29463"
       id="path4641"
       inkscape:connector-curvature="0" />
    <text
       xml:space="preserve"
       style="font-size:36px;font-style:normal;font-weight:normal;line-height:125%;letter-spacing:0px;word-spacing:0px;fill:#ff0000;fill-opacity:1;stroke:none;font-family:Sans"
       x="344.42133"
       y="244.59825"
       id="text4546-2"
       sodipodi:linespacing="125%"
       transform="scale(1.0493989,0.95292649)"><tspan
         sodipodi:role="line"
         id="tspan4548-4"
         x="344.42133"
         y="244.59825"
         style="font-size:36px;font-style:normal;font-variant:normal;font-weight:normal;font-stretch:normal;fill:#ff0000;font-family:Andalus;-inkscape-font-specification:Andalus">JUnit</tspan></text>
    <text
       xml:space="preserve"
       style="font-size:36px;font-style:normal;font-weight:normal;line-height:125%;letter-spacing:0px;word-spacing:0px;fill:#552200;fill-opacity:1;stroke:none;font-family:Sans"
       x="342.37433"
       y="202.37737"
       id="text4546-2-5"
       sodipodi:linespacing="125%"
       transform="scale(1.0493989,0.95292649)"><tspan
         sodipodi:role="line"
         id="tspan4548-4-5"
         x="342.37433"
         y="202.37737"
         style="font-size:36px;font-style:normal;font-variant:normal;font-weight:normal;font-stretch:normal;fill:#552200;font-family:Andalus;-inkscape-font-specification:Andalus">Mockito</tspan></text>
    <text
       xml:space="preserve"
       style="font-size:36px;font-style:normal;font-weight:normal;line-height:125%;letter-spacing:0px;word-spacing:0px;fill:#800000;fill-opacity:1;stroke:none;font-family:Sans"
       x="292.18436"
       y="164.71365"
       id="text4546-2-5-1"
       sodipodi:linespacing="125%"
       transform="scale(1.0493989,0.95292649)"><tspan
         sodipodi:role="line"
         id="tspan4548-4-5-7"
         x="292.18436"
         y="164.71365"
         style="font-size:36px;font-style:normal;font-variant:normal;font-weight:normal;font-stretch:normal;fill:#800000;font-family:Andalus;-inkscape-font-specification:Andalus">PowerMock</tspan></text>
    <text
       xml:space="preserve"
       style="font-size:36px;font-style:normal;font-weight:normal;line-height:125%;letter-spacing:0px;word-spacing:0px;fill:#ff0000;fill-opacity:1;stroke:none;font-family:Sans"
       x="611.73871"
       y="363.7532"
       id="text4546-2-1"
       sodipodi:linespacing="125%"
       transform="scale(1.0493989,0.95292649)"><tspan
         sodipodi:role="line"
         id="tspan4548-4-1"
         x="611.73871"
         y="363.7532"
         style="font-size:36px;font-style:normal;font-variant:normal;font-weight:normal;font-stretch:normal;fill:#ff0000;font-family:Andalus;-inkscape-font-specification:Andalus">JUnit</tspan></text>
    <text
       xml:space="preserve"
       style="font-size:36px;font-style:normal;font-weight:normal;line-height:125%;letter-spacing:0px;word-spacing:0px;fill:#552200;fill-opacity:1;stroke:none;font-family:Sans"
       x="609.69171"
       y="329.18478"
       id="text4546-2-5-5"
       sodipodi:linespacing="125%"
       transform="scale(1.0493989,0.95292649)"><tspan
         sodipodi:role="line"
         id="tspan4548-4-5-2"
         x="609.69171"
         y="329.18478"
         style="font-size:36px;font-style:normal;font-variant:normal;font-weight:normal;font-stretch:normal;fill:#552200;font-family:Andalus;-inkscape-font-specification:Andalus">Mockito</tspan></text>
    <text
       xml:space="preserve"
       style="font-size:36px;font-style:normal;font-weight:normal;line-height:125%;letter-spacing:0px;word-spacing:0px;fill:#800000;fill-opacity:1;stroke:none;font-family:Sans"
       x="559.50171"
       y="287.49719"
       id="text4546-2-5-1-7"
       sodipodi:linespacing="125%"
       transform="scale(1.0493989,0.95292649)"><tspan
         sodipodi:role="line"
         id="tspan4548-4-5-7-6"
         x="559.50171"
         y="287.49719"
         style="font-size:36px;font-style:normal;font-variant:normal;font-weight:normal;font-stretch:normal;fill:#800000;font-family:Andalus;-inkscape-font-specification:Andalus">PowerMock</tspan></text>
    <text
       xml:space="preserve"
       style="font-size:36px;font-style:normal;font-weight:normal;line-height:125%;letter-spacing:0px;word-spacing:0px;fill:#000080;fill-opacity:1;stroke:none;font-family:Sans"
       x="562.71149"
       y="245.82724"
       id="text4546-2-1-1"
       sodipodi:linespacing="125%"
       transform="scale(1.0493989,0.95292649)"><tspan
         sodipodi:role="line"
         id="tspan4548-4-1-4"
         x="562.71149"
         y="245.82724"
         style="font-size:36px;font-style:normal;font-variant:normal;font-weight:normal;font-stretch:normal;fill:#000080;font-family:Andalus;-inkscape-font-specification:Andalus">TestNG</tspan></text>
    <text
       xml:space="preserve"
       style="font-size:36px;font-style:normal;font-weight:normal;line-height:125%;letter-spacing:0px;word-spacing:0px;fill:#484537;fill-opacity:1;stroke:none;font-family:Sans"
       x="687.117"
       y="245.24225"
       id="text4546-2-1-1-2"
       sodipodi:linespacing="125%"
       transform="scale(1.0493989,0.95292649)"><tspan
         sodipodi:role="line"
         id="tspan4548-4-1-4-3"
         x="687.117"
         y="245.24225"
         style="font-size:36px;font-style:normal;font-variant:normal;font-weight:normal;font-stretch:normal;fill:#484537;font-family:Andalus;-inkscape-font-specification:Andalus">Fest</tspan></text>
    <text
       xml:space="preserve"
       style="font-size:36px;font-style:normal;font-weight:normal;line-height:125%;letter-spacing:0px;word-spacing:0px;fill:#668000;fill-opacity:1;stroke:none;font-family:Sans"
       x="557.6778"
       y="155.31538"
       id="text4546-2-1-1-22"
       sodipodi:linespacing="125%"
       transform="scale(1.0493989,0.95292649)"><tspan
         sodipodi:role="line"
         id="tspan4548-4-1-4-1"
         x="557.6778"
         y="155.31538"
         style="font-size:36px;font-style:normal;font-variant:normal;font-weight:normal;font-stretch:normal;fill:#668000;font-family:Andalus;-inkscape-font-specification:Andalus">AssertJ</tspan></text>
    <text
       xml:space="preserve"
       style="font-size:36px;font-style:normal;font-weight:normal;line-height:125%;letter-spacing:0px;word-spacing:0px;fill:#ff00ff;fill-opacity:1;stroke:none;font-family:Sans"
       x="544.97205"
       y="197.47755"
       id="text4546-2-1-1-6"
       sodipodi:linespacing="125%"
       transform="scale(1.0493989,0.95292649)"><tspan
         sodipodi:role="line"
         id="tspan4548-4-1-4-8"
         x="544.97205"
         y="197.47755"
         style="font-size:36px;font-style:normal;font-variant:normal;font-weight:normal;font-stretch:normal;fill:#ff00ff;font-family:Andalus;-inkscape-font-specification:Andalus">CatchException</tspan></text>
    <text
       xml:space="preserve"
       style="font-size:36px;font-style:normal;font-weight:normal;line-height:125%;letter-spacing:0px;word-spacing:0px;fill:#008000;fill-opacity:1;stroke:none;font-family:Sans"
       x="595.00073"
       y="121.06336"
       id="text4546-2-1-1-5"
       sodipodi:linespacing="125%"
       transform="scale(1.0493989,0.95292649)"><tspan
         sodipodi:role="line"
         id="tspan4548-4-1-4-7"
         x="595.00073"
         y="121.06336"
         style="font-size:36px;font-style:normal;font-variant:normal;font-weight:normal;font-stretch:normal;fill:#008000;font-family:Andalus;-inkscape-font-specification:Andalus">Hamcrest</tspan></text>
    <path
       style="fill:none;stroke:#ff0000;stroke-width:1.5;stroke-linecap:butt;stroke-linejoin:miter;stroke-miterlimit:4;stroke-opacity:1;stroke-dasharray:none"
       d="m 759.79461,403.92085 c -1.08049,1.33174 -3.21163,-2.4897 -4.12479,-2.94628 -0.23364,-0.11682 -1.6473,0.12046 -1.76777,0 -0.13889,-0.13889 0.13889,-0.45037 0,-0.58926 -0.27778,-0.27778 -0.82714,0.17568 -1.17851,0 -0.24845,-0.12422 -0.39284,-0.39284 -0.58925,-0.58925 -0.39284,0 -0.80584,0.12422 -1.17852,0 -0.26352,-0.0879 -0.3408,-0.46503 -0.58925,-0.58926 -0.37378,-0.18689 -2.56349,0.1914 -2.94628,0 -0.24845,-0.12423 -0.32573,-0.50141 -0.58926,-0.58926 -0.37267,-0.12422 -0.78567,0 -1.17851,0 -0.58925,0 -1.17851,0 -1.76776,0 -2.16061,0 -4.32121,0 -6.48182,0 -1.57134,0 -3.14269,0 -4.71404,0 -0.30813,0 -2.20208,-0.0775 -2.35702,0 -0.24846,0.12423 -0.34081,0.46503 -0.58926,0.58926 -0.17568,0.0878 -0.45037,-0.13889 -0.58925,0 -0.13889,0.13889 0.13888,0.45037 0,0.58926 -0.19425,0.19424 -1.93061,-0.14214 -2.35703,0 -0.26352,0.0878 -0.3408,0.46503 -0.58925,0.58925 -0.17569,0.0878 -0.41358,-0.0878 -0.58926,0 -0.4969,0.24845 -0.68161,0.93006 -1.17851,1.17851 -0.17568,0.0878 -0.45037,-0.13889 -0.58926,0 -0.13888,0.13889 0.13889,0.45037 0,0.58926 -0.13888,0.13889 -0.50141,-0.17568 -0.58925,0 -0.17568,0.35136 0.17568,0.82715 0,1.17851 -0.0878,0.17568 -0.41357,-0.0878 -0.58926,0 -0.24845,0.12423 -0.3408,0.46503 -0.58925,0.58926 -0.17568,0.0878 -0.45037,-0.13889 -0.58926,0 -0.19802,0.19802 0.19802,0.98048 0,1.17851 -0.13889,0.13889 -0.45037,-0.13889 -0.58925,0 -0.13889,0.13889 0.13888,0.45036 0,0.58925 -0.13889,0.13889 -0.45037,-0.13889 -0.58926,0 -1.65919,0.0366 -0.15005,1.32856 -0.58926,1.76777 -0.13888,0.13889 -0.45036,-0.13889 -0.58925,0 -0.019,0.0189 0,1.62486 0,1.76777"
       id="path5379"
       inkscape:connector-curvature="0" />
    <path
       style="fill:#ff0000;stroke:#000000;stroke-width:1px;stroke-linecap:butt;stroke-linejoin:miter;stroke-opacity:1"
       d="m 952.23713,135.07729 c -1.76777,0 -3.53553,0 -5.3033,0 -0.19642,0 -0.45037,-0.13889 -0.58926,0 -0.13888,0.13889 0.13889,0.45037 0,0.58926 -0.13888,0.13888 -0.45036,-0.13889 -0.58925,0 -0.13889,0.13888 0,0.39283 0,0.58925 0,0.98209 0,1.96419 0,2.94628 0,0.19642 0,0.39284 0,0.58926 0,0.19641 -0.13889,0.45036 0,0.58925 0.13889,0.13889 0.45037,-0.13889 0.58925,0 0.13889,0.13889 -0.13888,0.45037 0,0.58926 0.13889,0.13889 0.45037,-0.13889 0.58926,0 0.13889,0.13889 -0.13889,0.45036 0,0.58925 0.27778,0.27778 0.90073,-0.27778 1.17851,0 0.13889,0.13889 -0.17568,0.50142 0,0.58926 0.35137,0.17568 0.80584,-0.12423 1.17851,0 0.26353,0.0878 0.34081,0.46503 0.58926,0.58925 0.17568,0.0878 0.45037,-0.13889 0.58925,0 0.13889,0.13889 -0.13888,0.45037 0,0.58926 0.1418,0.14179 2.21523,-0.14179 2.35703,0 0.13889,0.13889 -0.13889,0.45037 0,0.58925 0.13889,0.13889 0.41357,-0.0878 0.58925,0 0.67457,0.33729 0.34937,0.86564 1.17851,0.58926 2.21139,-0.73713 0.65346,-0.78187 1.17852,-2.35702 0.0878,-0.26353 0.46502,-0.34081 0.58925,-0.58926 0.0878,-0.17568 -0.0621,-0.40291 0,-0.58925 0.13889,-0.41667 0.45037,-0.76185 0.58926,-1.17851 0.1063,-0.31891 0,-2.15628 0,-2.35703 0,-0.19642 0.13889,-0.45036 0,-0.58925 -0.13889,-0.13889 -0.45037,0.13889 -0.58926,0 -0.27778,-0.27778 0.27778,-0.90074 0,-1.17851 -0.13889,-0.13889 -0.45037,0.13888 -0.58925,0 -0.13889,-0.13889 0.13888,-0.45037 0,-0.58926 -0.13889,-0.13889 -0.39284,0 -0.58926,0 -0.98209,0 -1.96419,0 -2.94628,0 z"
       id="path5381"
       inkscape:connector-curvature="0" />
    <path
       style="fill:none;stroke:#ff0000;stroke-width:1.5;stroke-linecap:butt;stroke-linejoin:miter;stroke-opacity:1;stroke-miterlimit:4;stroke-dasharray:none"
       d="m 460.50329,279.79981 c 1.03022,-0.50641 2.06044,-1.01284 3.09066,-1.51927 0.20605,-0.25321 0.3575,-0.59949 0.61813,-0.75962 0.58279,-0.3581 1.27163,-0.40154 1.8544,-0.75964 0.26063,-0.16014 0.34169,-0.64639 0.61814,-0.75963 0.39094,-0.16015 0.83648,0.12286 1.23626,0 0.44697,-0.13733 0.79918,-0.58059 1.23627,-0.75964 0.35806,-0.14668 1.93686,0 2.47252,0 0.14992,0 1.83453,-0.0245 1.8544,0 0.1457,0.17905 -0.0921,0.53315 0,0.75964 1.28626,3.16142 -0.0427,-0.81208 1.23627,0.75963 0.1457,0.17905 -0.1457,0.58059 0,0.75964 0.1457,0.17905 0.47244,-0.17905 0.61814,0 0.20533,0.25233 -0.20535,1.26691 0,1.51926 0.14569,0.17905 0.47243,-0.17904 0.61812,0 0.1457,0.17905 -0.14569,0.5806 0,0.75963 1.27894,1.57172 -0.05,-2.40177 1.23627,0.75964 0.0921,0.22648 -0.1457,0.58059 0,0.75964 0.29139,0.35809 0.94488,-0.3581 1.23626,0 0.1457,0.17904 -0.14569,0.58058 0,0.75963 0.0199,0.0245 1.70449,0 1.8544,0 0.20605,0 0.47244,0.17905 0.61814,0 0.20533,-0.25234 -0.20534,-1.26693 0,-1.51927 0.1457,-0.17905 0.43384,0.11319 0.61813,0 0.26062,-0.16015 0.35751,-0.59949 0.61813,-0.75964 0.18429,-0.11319 0.47244,0.17905 0.61813,0 0.1457,-0.17903 -0.14569,-0.58058 0,-0.75963 0.1457,-0.17904 0.43385,0.11319 0.61814,0 0.49281,-0.3028 0.74346,-1.21646 1.23626,-1.51926 0.18429,-0.11319 0.47244,0.17905 0.61814,0 0.14569,-0.17905 -0.1457,-0.58059 0,-0.75964 0.14569,-0.17905 0.41208,0 0.61812,0 0.4121,0 0.82419,0 1.23627,0 0.20604,0 0.47244,-0.17905 0.61814,0 0.14569,0.17905 -0.1457,0.58059 0,0.75964 0.20533,0.25233 1.03093,-0.25235 1.23626,0 0.29139,0.3581 -0.29139,1.16117 0,1.51926 0.1457,0.17905 0.47244,-0.17904 0.61814,0 0.14569,0.17905 -0.1457,0.5806 0,0.75963 0.14569,0.17905 0.41208,0 0.61812,0 0.20605,0 0.526,0.22649 0.61814,0 0.55287,-0.59923 -0.27644,-1.59946 0,-2.27889 0.13031,-0.32029 0.48782,-0.43936 0.61813,-0.75964 0.1843,-0.45296 -0.29138,-1.16117 0,-1.51927 0.14569,-0.17905 0.47244,0.17905 0.61813,0 0.0198,-0.0245 0,-2.09468 0,-2.27891"
       id="path5383"
       inkscape:connector-curvature="0" />
    <path
       style="fill:none;stroke:#ff0000;stroke-width:1.5;stroke-linecap:butt;stroke-linejoin:miter;stroke-opacity:1;stroke-miterlimit:4;stroke-dasharray:none"
       d="m 178.33334,202.5 c 2.5,0 5,0 7.5,0 0.27777,0 0.55555,0 0.83333,0 0.27778,0 0.58488,-0.12423 0.83333,0 0.35137,0.17568 0.48197,0.65765 0.83334,0.83333 0.24845,0.12423 0.63691,-0.19642 0.83333,0 0.19642,0.19642 -0.19642,0.63692 0,0.83334 0.19642,0.19642 0.55556,0 0.83333,0 0.71528,0 4.51244,-0.16253 5,0 0.37268,0.12422 0.48197,0.65765 0.83334,0.83333 0.25361,0.12681 2.1247,0 2.5,0 2.22222,0 4.44444,0 6.66666,0 1.95432,0 -0.39283,0.19642 1.66667,-0.83333 0.24845,-0.12423 0.63691,0.19642 0.83333,0 0.19642,-0.19642 -0.19642,-0.63692 0,-0.83334 0.82207,-0.82206 1.66667,1.70757 1.66667,-0.83333"
       id="path5385"
       inkscape:connector-curvature="0" />
    <path
       style="fill:#ff0000;stroke:#000000;stroke-width:1px;stroke-linecap:butt;stroke-linejoin:miter;stroke-opacity:1"
       d="m 740.64379,379.68211 c -1.76777,0 -3.53553,0 -5.3033,0 -0.19642,0 -0.45037,-0.13889 -0.58926,0 -0.13888,0.13889 0.13889,0.45037 0,0.58926 -0.13888,0.13888 -0.45036,-0.13889 -0.58925,0 -0.13889,0.13888 0,0.39283 0,0.58925 0,0.98209 0,1.96419 0,2.94628 0,0.19642 0,0.39284 0,0.58926 0,0.19641 -0.13889,0.45036 0,0.58925 0.13889,0.13889 0.45037,-0.13889 0.58925,0 0.13889,0.13889 -0.13888,0.45037 0,0.58926 0.13889,0.13889 0.45037,-0.13889 0.58926,0 0.13889,0.13889 -0.13889,0.45036 0,0.58925 0.27778,0.27778 0.90073,-0.27778 1.17851,0 0.13889,0.13889 -0.17568,0.50142 0,0.58926 0.35137,0.17568 0.80584,-0.12423 1.17851,0 0.26353,0.0878 0.34081,0.46503 0.58926,0.58925 0.17568,0.0878 0.45037,-0.13889 0.58925,0 0.13889,0.13889 -0.13888,0.45037 0,0.58926 0.1418,0.14179 2.21523,-0.14179 2.35703,0 0.13889,0.13889 -0.13889,0.45037 0,0.58925 0.13889,0.13889 0.41357,-0.0878 0.58925,0 0.67457,0.33729 0.34937,0.86564 1.17851,0.58926 2.21139,-0.73713 0.65346,-0.78187 1.17852,-2.35702 0.0878,-0.26353 0.46502,-0.34081 0.58925,-0.58926 0.0878,-0.17568 -0.0621,-0.40291 0,-0.58925 0.13889,-0.41667 0.45037,-0.76185 0.58926,-1.17851 0.1063,-0.31891 0,-2.15628 0,-2.35703 0,-0.19642 0.13889,-0.45036 0,-0.58925 -0.13889,-0.13889 -0.45037,0.13889 -0.58926,0 -0.27778,-0.27778 0.27778,-0.90074 0,-1.17851 -0.13889,-0.13889 -0.45037,0.13888 -0.58925,0 -0.13889,-0.13889 0.13888,-0.45037 0,-0.58926 -0.13889,-0.13889 -0.39284,0 -0.58926,0 -0.98209,0 -1.96419,0 -2.94628,0 z"
       id="path5381-6"
       inkscape:connector-curvature="0" />
    <path
       style="fill:#ff0000;stroke:#000000;stroke-width:1px;stroke-linecap:butt;stroke-linejoin:miter;stroke-opacity:1"
       d="m 468.38388,248.61152 c -1.76777,0 -3.53553,0 -5.3033,0 -0.19642,0 -0.45037,-0.13889 -0.58926,0 -0.13888,0.13889 0.13889,0.45037 0,0.58926 -0.13888,0.13888 -0.45036,-0.13889 -0.58925,0 -0.13889,0.13888 0,0.39283 0,0.58925 0,0.98209 0,1.96419 0,2.94628 0,0.19642 0,0.39284 0,0.58926 0,0.19641 -0.13889,0.45036 0,0.58925 0.13889,0.13889 0.45037,-0.13889 0.58925,0 0.13889,0.13889 -0.13888,0.45037 0,0.58926 0.13889,0.13889 0.45037,-0.13889 0.58926,0 0.13889,0.13889 -0.13889,0.45036 0,0.58925 0.27778,0.27778 0.90073,-0.27778 1.17851,0 0.13889,0.13889 -0.17568,0.50142 0,0.58926 0.35137,0.17568 0.80584,-0.12423 1.17851,0 0.26353,0.0878 0.34081,0.46503 0.58926,0.58925 0.17568,0.0878 0.45037,-0.13889 0.58925,0 0.13889,0.13889 -0.13888,0.45037 0,0.58926 0.1418,0.14179 2.21523,-0.14179 2.35703,0 0.13889,0.13889 -0.13889,0.45037 0,0.58925 0.13889,0.13889 0.41357,-0.0878 0.58925,0 0.67457,0.33729 0.34937,0.86564 1.17851,0.58926 2.21139,-0.73713 0.65346,-0.78187 1.17852,-2.35702 0.0878,-0.26353 0.46502,-0.34081 0.58925,-0.58926 0.0878,-0.17568 -0.0621,-0.40291 0,-0.58925 0.13889,-0.41667 0.45037,-0.76185 0.58926,-1.17851 0.1063,-0.31891 0,-2.15628 0,-2.35703 0,-0.19642 0.13889,-0.45036 0,-0.58925 -0.13889,-0.13889 -0.45037,0.13889 -0.58926,0 -0.27778,-0.27778 0.27778,-0.90074 0,-1.17851 -0.13889,-0.13889 -0.45037,0.13888 -0.58925,0 -0.13889,-0.13889 0.13888,-0.45037 0,-0.58926 -0.13889,-0.13889 -0.39284,0 -0.58926,0 -0.98209,0 -1.96419,0 -2.94628,0 z"
       id="path5381-1"
       inkscape:connector-curvature="0" />
    <path
       style="fill:#ff0000;stroke:#000000;stroke-width:1px;stroke-linecap:butt;stroke-linejoin:miter;stroke-opacity:1"
       d="m 183.38388,171.11152 c -1.76777,0 -3.53553,0 -5.3033,0 -0.19642,0 -0.45037,-0.13889 -0.58926,0 -0.13888,0.13889 0.13889,0.45037 0,0.58926 -0.13888,0.13888 -0.45036,-0.13889 -0.58925,0 -0.13889,0.13888 0,0.39283 0,0.58925 0,0.98209 0,1.96419 0,2.94628 0,0.19642 0,0.39284 0,0.58926 0,0.19641 -0.13889,0.45036 0,0.58925 0.13889,0.13889 0.45037,-0.13889 0.58925,0 0.13889,0.13889 -0.13888,0.45037 0,0.58926 0.13889,0.13889 0.45037,-0.13889 0.58926,0 0.13889,0.13889 -0.13889,0.45036 0,0.58925 0.27778,0.27778 0.90073,-0.27778 1.17851,0 0.13889,0.13889 -0.17568,0.50142 0,0.58926 0.35137,0.17568 0.80584,-0.12423 1.17851,0 0.26353,0.0878 0.34081,0.46503 0.58926,0.58925 0.17568,0.0878 0.45037,-0.13889 0.58925,0 0.13889,0.13889 -0.13888,0.45037 0,0.58926 0.1418,0.14179 2.21523,-0.14179 2.35703,0 0.13889,0.13889 -0.13889,0.45037 0,0.58925 0.13889,0.13889 0.41357,-0.0878 0.58925,0 0.67457,0.33729 0.34937,0.86564 1.17851,0.58926 2.21139,-0.73713 0.65346,-0.78187 1.17852,-2.35702 0.0878,-0.26353 0.46502,-0.34081 0.58925,-0.58926 0.0878,-0.17568 -0.0621,-0.40291 0,-0.58925 0.13889,-0.41667 0.45037,-0.76185 0.58926,-1.17851 0.1063,-0.31891 0,-2.15628 0,-2.35703 0,-0.19642 0.13889,-0.45036 0,-0.58925 -0.13889,-0.13889 -0.45037,0.13889 -0.58926,0 -0.27778,-0.27778 0.27778,-0.90074 0,-1.17851 -0.13889,-0.13889 -0.45037,0.13888 -0.58925,0 -0.13889,-0.13889 0.13888,-0.45037 0,-0.58926 -0.13889,-0.13889 -0.39284,0 -0.58926,0 -0.98209,0 -1.96419,0 -2.94628,0 z"
       id="path5381-8"
       inkscape:connector-curvature="0" />
  </g>
</svg>
