<?xml version="1.0" encoding="UTF-8" standalone="no"?>
<!-- Created with Inkscape (http://www.inkscape.org/) -->

<svg
   xmlns:dc="http://purl.org/dc/elements/1.1/"
   xmlns:cc="http://creativecommons.org/ns#"
   xmlns:rdf="http://www.w3.org/1999/02/22-rdf-syntax-ns#"
   xmlns:svg="http://www.w3.org/2000/svg"
   xmlns="http://www.w3.org/2000/svg"
   xmlns:sodipodi="http://sodipodi.sourceforge.net/DTD/sodipodi-0.dtd"
   xmlns:inkscape="http://www.inkscape.org/namespaces/inkscape"
   id="svg3022"
   version="1.1"
   inkscape:version="0.48.4 r9939"
   width="1200"
   height="600"
   sodipodi:docname="Human_evolution_scheme_2.png">
  <metadata
     id="metadata3028">
    <rdf:RDF>
      <cc:Work
         rdf:about="">
        <dc:format>image/svg+xml</dc:format>
        <dc:type
           rdf:resource="http://purl.org/dc/dcmitype/StillImage" />
        <dc:title></dc:title>
      </cc:Work>
    </rdf:RDF>
  </metadata>
  <defs
     id="defs3026">
    <marker
       inkscape:stockid="Arrow1Lend"
       orient="auto"
       refY="0.0"
       refX="0.0"
       id="Arrow1Lend"
       style="overflow:visible;">
      <path
         id="path3843"
         d="M 0.0,0.0 L 5.0,-5.0 L -12.5,0.0 L 5.0,5.0 L 0.0,0.0 z "
         style="fill-rule:evenodd;stroke:#000000;stroke-width:1.0pt;"
         transform="scale(0.8) rotate(180) translate(12.5,0)" />
    </marker>
    <marker
       inkscape:stockid="Arrow1Lend"
       orient="auto"
       refY="0"
       refX="0"
       id="Arrow1Lend-2"
       style="overflow:visible">
      <path
         inkscape:connector-curvature="0"
         id="path3843-7"
         d="M 0,0 5,-5 -12.5,0 5,5 0,0 z"
         style="fill-rule:evenodd;stroke:#000000;stroke-width:1pt"
         transform="matrix(-0.8,0,0,-0.8,-10,0)" />
    </marker>
    <marker
       inkscape:stockid="Arrow1Lend"
       orient="auto"
       refY="0"
       refX="0"
       id="Arrow1Lend-1"
       style="overflow:visible">
      <path
         inkscape:connector-curvature="0"
         id="path3843-4"
         d="M 0,0 5,-5 -12.5,0 5,5 0,0 z"
         style="fill-rule:evenodd;stroke:#000000;stroke-width:1pt"
         transform="matrix(-0.8,0,0,-0.8,-10,0)" />
    </marker>
  </defs>
  <sodipodi:namedview
     pagecolor="#ffffff"
     bordercolor="#666666"
     borderopacity="1"
     objecttolerance="10"
     gridtolerance="10"
     guidetolerance="10"
     inkscape:pageopacity="0"
     inkscape:pageshadow="2"
     inkscape:window-width="1366"
     inkscape:window-height="706"
     id="namedview3024"
     showgrid="false"
     inkscape:zoom="0.67410846"
     inkscape:cx="528.6733"
     inkscape:cy="311.38487"
     inkscape:window-x="-8"
     inkscape:window-y="-8"
     inkscape:window-maximized="1"
     inkscape:current-layer="svg3022" />
  <rect
     style="fill:none;stroke:#000000;stroke-width:2;stroke-miterlimit:4;stroke-dasharray:none;stroke-dashoffset:0"
     id="rect3032"
     width="154.77937"
     height="81.818184"
     x="442.65732"
     y="226.57343" />
  <text
     xml:space="preserve"
     style="font-size:40px;font-style:normal;font-weight:normal;line-height:125%;letter-spacing:0px;word-spacing:0px;fill:#000000;fill-opacity:1;stroke:none;font-family:Sans"
     x="452.44946"
     y="279.57678"
     id="text3802"
     sodipodi:linespacing="125%"><tspan
       sodipodi:role="line"
       x="452.44946"
       y="279.57678"
       id="tspan3806">SUT</tspan></text>
  <rect
     style="fill:none;stroke:#000080;stroke-width:2;stroke-miterlimit:4;stroke-dasharray:none;stroke-dashoffset:0"
     id="rect3032-1"
     width="154.77937"
     height="81.818184"
     x="85.788811"
     y="298.00534" />
  <text
     xml:space="preserve"
     style="font-size:40px;font-style:normal;font-weight:normal;line-height:125%;letter-spacing:0px;word-spacing:0px;fill:#000000;fill-opacity:1;stroke:#000080;font-family:Sans"
     x="95.580925"
     y="351.0087"
     id="text3802-7"
     sodipodi:linespacing="125%"><tspan
       sodipodi:role="line"
       x="95.580925"
       y="351.0087"
       id="tspan3806-4">Test</tspan></text>
  <path
     style="fill:none;stroke:#000000;stroke-width:2;stroke-linecap:butt;stroke-linejoin:miter;stroke-opacity:1;marker-end:url(#Arrow1Lend);stroke-miterlimit:4;stroke-dasharray:none"
     d="M 246.25118,339.39786 428.71439,261.29205"
     id="path3834"
     inkscape:connector-curvature="0" />
  <path
     style="fill:none;stroke:#ff0000;stroke-width:1px;stroke-linecap:butt;stroke-linejoin:miter;stroke-opacity:1"
     d="m 384.21117,205.40475 c 0.0692,-3.43739 7.30599,-2.74446 8.90064,-5.93377 0.22114,-0.44227 -0.22114,-1.04116 0,-1.48344 0.62548,-1.25094 2.44746,-1.66831 2.96688,-2.96688 0.75719,-1.89297 0.43449,-4.18551 1.48344,-5.93376 5.42042,-9.03403 1.02888,3.87602 4.45033,-2.96688 0.22114,-0.44228 0,-0.98896 0,-1.48344 0.98896,-0.49448 2.18504,-0.7016 2.96688,-1.48345 0.34965,-0.34965 -0.22114,-1.04116 0,-1.48344 0.31274,-0.62547 0.98896,-0.98896 1.48344,-1.48344 0.49448,-0.49448 0.85797,-1.1707 1.48344,-1.48344 0.44228,-0.22114 1.04116,0.22114 1.48344,0 2.96586,-1.48293 -0.0262,-3.45262 2.96688,-4.45032 0.93821,-0.31274 2.00745,0.23986 2.96688,0 1.07268,-0.26817 1.91793,-1.13379 2.96689,-1.48344 0.4691,-0.15637 1.04116,0.22114 1.48344,0 7.25143,-3.62572 1.44331,-2.58599 8.90064,-4.45032 0.95943,-0.23986 2.02867,0.31273 2.96688,0 3.23734,-1.07911 2.69643,-1.88777 5.93377,-2.96688 0.4691,-0.15637 1.01433,0.15636 1.48344,0 1.04895,-0.34966 1.88266,-1.2666 2.96688,-1.48345 1.45463,-0.29092 2.96688,0 4.45032,0 3.95584,0 7.91169,0 11.86753,0 0.98896,0 1.99712,0.19396 2.96688,0 1.53332,-0.30666 2.917,-1.17677 4.45032,-1.48344 0.96976,-0.19395 1.97792,0 2.96688,0 2.4724,0 4.94481,0 7.41721,0 0.98896,0 1.97792,0 2.96688,0 0.49448,0 1.01433,0.15637 1.48344,0 1.04895,-0.34965 1.8942,-1.21527 2.96688,-1.48344 0.95943,-0.23986 1.97792,0 2.96688,0 3.46136,0 6.92273,0 10.38409,0 1.48344,0 2.98706,0.24388 4.45032,0 1.54241,-0.25707 2.90791,-1.22637 4.45032,-1.48344 2.43876,-0.40646 4.94481,0 7.41721,0 0.34337,0 8.37079,0.26493 8.90064,0 0.62548,-0.31273 0.79772,-1.34629 1.48344,-1.48344 1.50676,-0.30135 8.01983,0 10.38409,0 6.92272,0 13.84545,0 20.76817,0 6.42824,0 12.85649,0 19.28473,0 1.0863,0 7.42716,-0.2947 8.90064,0 1.53332,0.30666 2.91701,1.17678 4.45033,1.48344 0.96975,0.19395 1.99137,-0.16258 2.96688,0 2.01105,0.33518 3.92271,1.14827 5.93376,1.48344 0.97551,0.16259 2.00745,-0.23986 2.96688,0 1.07268,0.26817 1.89421,1.21527 2.96689,1.48344 0.95943,0.23986 2.00744,-0.23985 2.96688,0 3.21649,0.80413 4.20071,3.6462 7.4172,4.45033 0.95943,0.23985 2.17571,-0.59338 2.96688,0 1.4263,1.06972 1.54058,3.38059 2.96688,4.45032 0.79117,0.59337 2.02868,-0.31274 2.96689,0 0.66341,0.22114 0.98896,0.98896 1.48344,1.48344 0.98896,0.98896 1.66831,2.44745 2.96688,2.96688 1.37734,0.55094 3.06133,-0.52087 4.45032,0 2.69971,1.01239 4.83831,3.16088 7.4172,4.45032 1.39861,0.6993 3.05173,0.78414 4.45033,1.48344 1.59465,0.79733 2.79496,2.30474 4.45032,2.96689 0.91823,0.36729 2.14402,-0.54858 2.96688,0 0.91999,0.61332 0.59889,2.30346 1.48344,2.96688 1.25095,0.93821 3.05172,0.78414 4.45032,1.48344 1.25095,0.62547 1.71594,2.34141 2.96689,2.96688 0.44227,0.22114 1.13379,-0.34965 1.48344,0 0.34965,0.34965 -0.34965,1.13379 0,1.48344 0.34965,0.34965 0.98896,0 1.48344,0 0.49448,0.98896 0.7016,2.18504 1.48344,2.96688 0.6993,0.6993 2.26758,-0.6993 2.96688,0 0.34965,0.34965 -0.34965,1.13379 0,1.48344 0.34965,0.34965 1.13379,-0.34965 1.48344,0 0.34965,0.34965 -0.22114,1.04117 0,1.48344 0.31274,0.62548 0.98896,0.98896 1.48344,1.48344 0.49448,0.49448 0.90159,1.09554 1.48344,1.48345 0.91999,0.61332 2.04689,0.87011 2.96688,1.48344 0.58186,0.3879 0.98896,0.98896 1.48344,1.48344 0.49448,0.49448 1.26231,0.82002 1.48345,1.48344 0.31273,0.93821 -0.31274,2.02867 0,2.96688 0.568,1.704 3.5416,2.05816 4.45032,2.96688 0.34965,0.34965 0,0.98896 0,1.48344 0,0.98896 -0.44228,2.08233 0,2.96688 0.22114,0.44228 1.2623,-0.44227 1.48344,0 0.44227,0.88456 -0.44228,2.08233 0,2.96688 0.22114,0.44228 0.98896,0 1.48344,0 0.49448,0.49449 1.2623,0.82003 1.48344,1.48345 1.48344,4.45032 -0.74172,1.48344 0,4.45032 0.91655,3.66618 1.43224,4.34791 2.96688,7.4172 0.49448,0.98896 1.21527,1.89421 1.48344,2.96688 0.23986,0.95944 -0.23986,2.00745 0,2.96689 0.26817,1.07267 0.98896,1.97792 1.48344,2.96688 0.49448,1.48344 1.17678,2.917 1.48344,4.45032 0.38791,1.93951 -0.62547,4.05734 0,5.93376 0.22114,0.66342 1.17071,0.85797 1.48344,1.48344 0.44228,0.88456 -0.44227,2.08233 0,2.96688 0.31274,0.62548 1.31384,0.80502 1.48345,1.48345 0.35978,1.43914 0,2.96688 0,4.45032 0,3.46136 0,6.92272 0,10.38408 0,0.98896 0,1.97792 0,2.96689 0,0.98896 -0.31274,2.02867 0,2.96688 0.22113,0.66341 1.1707,0.85796 1.48344,1.48344 0.27377,0.54754 0,7.60845 0,8.90064 0,4.45033 0,8.90065 0,13.35097 0,1.48344 0.35978,3.01117 0,4.45032 -0.16961,0.67842 -1.31384,0.80502 -1.48344,1.48344 -0.35979,1.43915 0.29092,2.99569 0,4.45033 -0.21685,1.08422 -1.13379,1.91793 -1.48345,2.96688 -0.15636,0.4691 0.18365,1.02432 0,1.48344 -0.82128,2.05322 -1.97792,3.95584 -2.96688,5.93376 -0.49448,0.98896 -1.21527,1.8942 -1.48344,2.96688 -0.23986,0.95944 0.23986,2.00745 0,2.96688 -0.53634,2.14536 -2.53319,3.76533 -2.96688,5.93377 -0.29093,1.45463 0,2.96688 0,4.45032 0,0.98896 0.31274,2.02867 0,2.96688 -0.22114,0.66342 -1.09554,0.90159 -1.48344,1.48344 -0.61333,0.91999 -1.0728,1.94028 -1.48344,2.96688 -0.58074,1.45185 -0.61607,3.14926 -1.48344,4.45033 -0.27429,0.41143 -1.13379,-0.34965 -1.48344,0 -5.78948,5.78947 0.34338,0.79668 -1.48344,4.45032 -0.98899,1.97798 -1.9779,0.9889 -2.96688,2.96688 -0.22114,0.44228 0.34965,1.13379 0,1.48344 -0.78185,0.78184 -2.0469,0.87011 -2.96689,1.48344 -0.58185,0.3879 -0.90158,1.09554 -1.48344,1.48344 -0.91999,0.61333 -2.18504,0.7016 -2.96688,1.48344 -7.58094,7.58095 6.22004,-2.069 -4.45032,5.93377 -0.88455,0.66341 -2.30347,0.59888 -2.96688,1.48344 -0.93821,1.25094 -0.54523,3.19937 -1.48344,4.45032 -0.66342,0.88455 -2.08233,0.82003 -2.96689,1.48344 -1.11888,0.83916 -1.80317,2.19108 -2.96688,2.96688 -1.97792,0.98896 -3.95584,1.97792 -5.93376,2.96688 -0.49448,0.49448 -0.90159,1.09554 -1.48344,1.48344 -4.42733,2.95156 -1.3461,0.56591 -5.93376,1.48345 -1.53332,0.30666 -3.05173,0.78414 -4.45033,1.48344 -1.59465,0.79732 -2.85567,2.16955 -4.45032,2.96688 -1.3986,0.6993 -2.99848,0.9027 -4.45032,1.48344 -1.02661,0.41064 -1.91793,1.13379 -2.96688,1.48344 -1.93417,0.64472 -3.95584,0.98896 -5.93377,1.48344 -1.97792,0.49448 -3.92785,1.11873 -5.93376,1.48344 -3.4401,0.62547 -6.99198,0.63542 -10.38408,1.48344 -2.58336,0.64584 -4.891,2.12481 -7.41721,2.96688 -1.93417,0.64473 -3.98095,0.8976 -5.93376,1.48344 -2.99548,0.89865 -5.82372,2.40745 -8.90065,2.96689 -2.43252,0.44227 -4.99281,-0.48488 -7.4172,0 -2.61115,0.52223 -4.891,2.12481 -7.4172,2.96688 -1.93418,0.64472 -3.97342,0.92334 -5.93377,1.48344 -3.00704,0.85915 -5.81583,2.45274 -8.90064,2.96688 -1.46326,0.24388 -2.98179,-0.20979 -4.45033,0 -2.0183,0.28833 -3.90201,1.31413 -5.93376,1.48344 -3.94218,0.32852 -7.91168,0 -11.86752,0 -9.39513,0 -18.79026,0 -28.18538,0 -5.43928,0 -10.87857,0 -16.31785,0 -1.97792,0 -4.05734,0.62547 -5.93376,0 -1.32683,-0.44228 -1.71594,-2.34141 -2.96688,-2.96688 -1.82356,-0.91178 -3.9996,-0.83872 -5.93377,-1.48344 -2.5432,-0.84774 -5.30134,-3.18081 -7.4172,-4.45032 -0.94812,-0.56888 -2.08233,-0.82003 -2.96688,-1.48344 -1.11888,-0.83917 -1.76759,-2.24731 -2.96688,-2.96689 -1.34085,-0.80451 -3.10948,-0.67893 -4.45033,-1.48344 -0.79686,-0.47811 -8.84033,-8.82525 -8.90064,-8.90064 -0.69072,-0.8634 -0.59889,-2.30347 -1.48344,-2.96688 -1.25095,-0.93821 -3.34463,-0.37775 -4.45032,-1.48344 -1.56369,-1.56369 -1.82914,-4.03752 -2.96689,-5.93377 -0.35978,-0.59964 -1.09553,-0.90159 -1.48344,-1.48344 -0.61332,-0.91999 -0.87011,-2.04689 -1.48344,-2.96688 -0.3879,-0.58185 -1.09554,-0.90159 -1.48344,-1.48344 -4.62195,-6.93292 2.90493,1.77686 -4.45032,-7.4172 -0.8737,-1.09213 -2.12772,-1.84801 -2.96688,-2.96689 -0.66342,-0.88455 -0.98896,-1.97792 -1.48344,-2.96688 -0.98896,-1.97792 -2.09578,-3.90118 -2.96688,-5.93376 -0.61597,-1.43725 -0.78415,-3.05172 -1.48345,-4.45032 -1.78287,-3.56575 -4.40044,-6.70413 -5.93376,-10.38409 -0.96975,-2.32741 -0.59813,-5.05638 -1.48344,-7.4172 -1.25202,-3.33872 -4.33911,-5.71135 -5.93376,-8.90065 -0.6993,-1.3986 -0.78414,-3.05172 -1.48344,-4.45032 -1.69269,-3.38538 -3.34015,-4.08668 -4.45033,-7.4172 -0.4691,-1.40732 0.35979,-3.01118 0,-4.45033 -0.26817,-1.07268 -1.13379,-1.91793 -1.48344,-2.96688 -0.64472,-1.93417 -0.83871,-3.99959 -1.48344,-5.93376 -0.34965,-1.04895 -1.13379,-1.91793 -1.48344,-2.96688 -0.15637,-0.46911 0,-0.98896 0,-1.48344 0,-1.48344 0,-2.96689 0,-4.45033 0,-0.98896 0.23986,-2.00745 0,-2.96688 -0.26817,-1.07268 -0.98896,-1.97792 -1.48344,-2.96688 -0.49448,-1.48344 -1.17678,-2.917 -1.48344,-4.45032 -0.19395,-0.96976 0,-1.97792 0,-2.96688 -0.49448,-1.48344 -1.10419,-2.93333 -1.48344,-4.45033 -0.35979,-1.43915 0.29093,-2.99569 0,-4.45032 -0.30666,-1.53332 -1.10419,-2.93332 -1.48344,-4.45032 -0.11993,-0.47972 0.22114,-1.04117 0,-1.48344 -0.31274,-0.62548 -1.2623,-0.82003 -1.48344,-1.48344 -0.31274,-0.93821 0.19395,-1.99713 0,-2.96688 -0.30667,-1.53332 -1.26231,-2.90236 -1.48344,-4.45033 -0.41958,-2.93706 0,-5.93376 0,-8.90064 0,-1.48344 0.24387,-2.98707 0,-4.45032 -0.25707,-1.54241 -1.1042,-2.93333 -1.48344,-4.45033 -0.61152,-2.44608 -0.79077,-4.99285 -1.48344,-7.4172 -0.30376,-1.06315 -1.1338,-1.91793 -1.48345,-2.96688 -0.31273,-0.93821 0,-1.97792 0,-2.96688 0,-1.28553 -0.28644,-5.07445 0,-5.93377 0.34965,-1.04895 0.98896,-1.97792 1.48345,-2.96688 1.48344,-2.96688 3.0777,-5.88089 4.45032,-8.90064 1.1019,-2.42418 1.59685,-5.13383 2.96688,-7.41721 0.25441,-0.42401 0.98896,0 1.48344,0"
     id="path4280"
     inkscape:connector-curvature="0" />
  <text
     xml:space="preserve"
     style="font-size:40px;font-style:normal;font-weight:normal;line-height:125%;letter-spacing:0px;word-spacing:0px;fill:#000000;fill-opacity:1;stroke:none;font-family:Sans"
     x="382.72772"
     y="450.17249"
     id="text4282"
     sodipodi:linespacing="125%"><tspan
       sodipodi:role="line"
       id="tspan4284"
       x="382.72772"
       y="450.17249">System Under Test</tspan></text>
  <g
     id="g4433"
     transform="translate(-63.787954,34.119138)">
    <rect
       y="106.64146"
       x="877.94611"
       height="81.818184"
       width="258.62021"
       id="rect3032-0"
       style="fill:none;stroke:#008000;stroke-width:1.99999988;stroke-miterlimit:4;stroke-dasharray:none;stroke-dashoffset:0" />
    <text
       sodipodi:linespacing="125%"
       id="text3802-9"
       y="159.64482"
       x="887.73828"
       style="font-size:40px;font-style:normal;font-weight:normal;line-height:125%;letter-spacing:0px;word-spacing:0px;fill:#00ff00;fill-opacity:1;stroke:none;font-family:Sans"
       xml:space="preserve"><tspan
         id="tspan3806-48"
         y="159.64482"
         x="887.73828"
         sodipodi:role="line">Collaborator1</tspan></text>
  </g>
  <flowRoot
     xml:space="preserve"
     id="flowRoot4321"
     style="fill:black;stroke:none;stroke-opacity:1;stroke-width:1px;stroke-linejoin:miter;stroke-linecap:butt;fill-opacity:1;font-family:Sans;font-style:normal;font-weight:normal;font-size:40px;line-height:125%;letter-spacing:0px;word-spacing:0px"><flowRegion
       id="flowRegion4323"><rect
         id="rect4325"
         width="218.0658"
         height="350.09204"
         x="864.84601"
         y="77.828835" /></flowRegion><flowPara
       id="flowPara4327"></flowPara></flowRoot>  <flowRoot
     xml:space="preserve"
     id="flowRoot4329"
     style="fill:black;stroke:none;stroke-opacity:1;stroke-width:1px;stroke-linejoin:miter;stroke-linecap:butt;fill-opacity:1;font-family:Sans;font-style:normal;font-weight:normal;font-size:40px;line-height:125%;letter-spacing:0px;word-spacing:0px"><flowRegion
       id="flowRegion4331"><rect
         id="rect4333"
         width="20.768171"
         height="192.84731"
         x="863.36255"
         y="68.928192" /></flowRegion><flowPara
       id="flowPara4335"></flowPara></flowRoot>  <flowRoot
     xml:space="preserve"
     id="flowRoot4337"
     style="fill:black;stroke:none;stroke-opacity:1;stroke-width:1px;stroke-linejoin:miter;stroke-linecap:butt;fill-opacity:1;font-family:Sans;font-style:normal;font-weight:normal;font-size:40px;line-height:125%;letter-spacing:0px;word-spacing:0px"><flowRegion
       id="flowRegion4339"><rect
         id="rect4341"
         width="234.38365"
         height="367.89331"
         x="835.17719"
         y="85.24604" /></flowRegion><flowPara
       id="flowPara4343"></flowPara></flowRoot>  <flowRoot
     xml:space="preserve"
     id="flowRoot4345"
     style="fill:black;stroke:none;stroke-opacity:1;stroke-width:1px;stroke-linejoin:miter;stroke-linecap:butt;fill-opacity:1;font-family:Sans;font-style:normal;font-weight:normal;font-size:40px;line-height:125%;letter-spacing:0px;word-spacing:0px"><flowRegion
       id="flowRegion4347"><rect
         id="rect4349"
         width="221.03268"
         height="148.34409"
         x="848.52814"
         y="92.663246" /></flowRegion><flowPara
       id="flowPara4351"></flowPara></flowRoot>  <g
     id="g4438"
     transform="translate(-63.787954,34.119138)">
    <rect
       y="263.88617"
       x="877.94623"
       height="81.818184"
       width="258.62021"
       id="rect3032-0-5"
       style="fill:none;stroke:#008000;stroke-width:1.99999988;stroke-miterlimit:4;stroke-dasharray:none;stroke-dashoffset:0" />
    <text
       sodipodi:linespacing="125%"
       id="text3802-9-1"
       y="316.88956"
       x="887.73834"
       style="font-size:40px;font-style:normal;font-weight:normal;line-height:125%;letter-spacing:0px;word-spacing:0px;fill:#00ff00;fill-opacity:1;stroke:none;font-family:Sans"
       xml:space="preserve"><tspan
         id="tspan3806-48-7"
         y="316.88956"
         x="887.73834"
         sodipodi:role="line">Collaborator2</tspan></text>
  </g>
  <path
     style="fill:none;stroke:#000000;stroke-width:2;stroke-linecap:butt;stroke-linejoin:miter;stroke-miterlimit:4;stroke-opacity:1;stroke-dasharray:none;marker-end:url(#Arrow1Lend)"
     d="M 610.43589,260.7755 792.8991,182.66969"
     id="path3834-6"
     inkscape:connector-curvature="0" />
  <path
     style="fill:none;stroke:#000000;stroke-width:2;stroke-linecap:butt;stroke-linejoin:miter;stroke-miterlimit:4;stroke-opacity:1;stroke-dasharray:none;marker-end:url(#Arrow1Lend)"
     d="m 608.95245,282.06024 191.36384,60.3045"
     id="path3834-6-2"
     inkscape:connector-curvature="0" />
</svg>
